<?xml version="1.0" encoding="utf-8"?>
<!-- Generator: Adobe Illustrator 22.0.1, SVG Export Plug-In . SVG Version: 6.00 Build 0)  -->
<svg version="1.1" xmlns="http://www.w3.org/2000/svg" xmlns:xlink="http://www.w3.org/1999/xlink" x="0px" y="0px"
	 viewBox="0 0 1473.3 704.6" style="enable-background:new 0 0 1473.3 704.6;" xml:space="preserve">
<style type="text/css">
	.st0{clip-path:url(#SVGID_2_);fill:#FFFFFF;}
	.st1{clip-path:url(#SVGID_4_);fill:#FFFFFF;}
	.st2{clip-path:url(#SVGID_6_);fill:#FFFFFF;}
	.st3{clip-path:url(#SVGID_8_);fill:#FFFFFF;}
	.st4{clip-path:url(#SVGID_10_);}
	.st5{fill:url(#SVGID_11_);}
	.st6{fill:url(#SVGID_12_);}
	.st7{fill:url(#SVGID_13_);}
	.st8{fill:url(#SVGID_14_);}
	.st9{fill:url(#SVGID_15_);}
	.st10{fill:url(#SVGID_16_);}
	.st11{fill:#FFFFFF;}
	.st12{fill:#BAE1F9;}
	.st13{fill:none;stroke:#BAE1F9;stroke-miterlimit:10;}
	.st14{opacity:0.7;clip-path:url(#SVGID_18_);}
	.st15{fill:#1D3160;}
	.st16{opacity:0;clip-path:url(#SVGID_18_);}
	.st17{fill:#DC325A;}
	.st18{clip-path:url(#SVGID_20_);}
	.st19{opacity:0.65;}
	.st20{fill:#999B9E;}
	.st21{opacity:0.65;fill:#999B9E;}
	.st22{fill:none;stroke:#FFFFFF;stroke-miterlimit:10;}
	.st23{clip-path:url(#SVGID_24_);}
	.st24{fill:#16A2E5;}
	.st25{fill:#39A74A;}
	.st26{clip-path:url(#SVGID_24_);fill:#FFFFFF;}
	.st27{fill:#E3E4E4;}
	.st28{clip-path:url(#SVGID_26_);}
	.st29{clip-path:url(#SVGID_26_);fill:#16A2E5;}
	.st30{clip-path:url(#SVGID_26_);fill:#FFFFFF;}
	.st31{clip-path:url(#SVGID_28_);}
	.st32{fill:none;stroke:#E3E4E4;stroke-width:0.7;stroke-miterlimit:10;}
	.st33{fill:#AEB0B2;}
	.st34{fill:none;stroke:#D8D9DA;stroke-miterlimit:10;}
	.st35{fill:#F6F7F7;}
	.st36{fill:#A02C58;}
	.st37{fill:none;stroke:#16A2E5;stroke-width:2;stroke-miterlimit:10;}
	.st38{clip-path:url(#SVGID_30_);}
	.st39{fill:#F6F7F7;stroke:#F6F7F7;stroke-width:2;stroke-miterlimit:10;}
	.st40{fill:#F6F7F7;stroke:#F1F2F2;stroke-width:2;stroke-miterlimit:10;}
	.st41{fill:#85878A;}
	.st42{fill:url(#SVGID_31_);}
	.st43{opacity:0.5;fill:#FFFFFF;}
	.st44{opacity:0.7;}
	.st45{clip-path:url(#SVGID_33_);}
	.st46{opacity:0.1;clip-path:url(#SVGID_33_);fill:#0D1938;}
	.st47{opacity:0.3;}
	.st48{fill:none;stroke:#231F20;stroke-width:2;stroke-linecap:round;stroke-linejoin:round;stroke-miterlimit:10;}
	.st49{fill:#D8D9DA;}
	.st50{fill:url(#SVGID_34_);}
	.st51{fill:url(#SVGID_35_);}
	.st52{fill:url(#SVGID_36_);}
	.st53{fill:url(#SVGID_37_);}
	.st54{fill:url(#SVGID_38_);}
	.st55{fill:url(#SVGID_39_);}
	.st56{opacity:0;fill:#E3F6FF;}
	.st57{clip-path:url(#SVGID_41_);}
	.st58{fill:none;stroke:url(#SVGID_42_);stroke-width:25.2889;stroke-linecap:round;stroke-linejoin:round;stroke-miterlimit:10;}
	.st59{fill:none;stroke:url(#SVGID_43_);stroke-width:25.2889;stroke-linecap:round;stroke-linejoin:round;stroke-miterlimit:10;}
	.st60{fill:none;stroke:url(#SVGID_44_);stroke-width:25.2889;stroke-linecap:round;stroke-linejoin:round;stroke-miterlimit:10;}
	.st61{fill:#F3AA8A;}
	.st62{opacity:0;}
	.st63{fill:none;stroke:#FFFFFF;stroke-width:1.2644;stroke-linecap:round;stroke-linejoin:round;stroke-miterlimit:10;}
	.st64{fill:url(#SVGID_45_);}
	.st65{fill:none;stroke:url(#SVGID_46_);stroke-width:25.2889;stroke-linecap:round;stroke-linejoin:round;stroke-miterlimit:10;}
	.st66{fill:none;stroke:url(#SVGID_47_);stroke-width:25.2889;stroke-linecap:round;stroke-linejoin:round;stroke-miterlimit:10;}
	.st67{fill:url(#SVGID_48_);}
	.st68{fill:url(#SVGID_49_);}
	.st69{fill:none;stroke:url(#SVGID_50_);stroke-width:25.2889;stroke-linecap:round;stroke-linejoin:round;stroke-miterlimit:10;}
	.st70{fill:#9E2C58;}
	.st71{fill:url(#SVGID_51_);}
	.st72{fill:none;stroke:url(#SVGID_52_);stroke-width:25.2889;stroke-linecap:round;stroke-linejoin:round;stroke-miterlimit:10;}
	.st73{fill:url(#SVGID_53_);}
	.st74{fill:url(#SVGID_54_);}
	.st75{fill:url(#SVGID_55_);}
	.st76{fill:url(#SVGID_56_);}
	.st77{fill:url(#SVGID_58_);}
	.st78{fill:url(#SVGID_59_);}
	.st79{fill:url(#SVGID_60_);}
	
		.st80{clip-path:url(#SVGID_62_);fill:none;stroke:url(#SVGID_63_);stroke-width:48.065;stroke-linecap:round;stroke-linejoin:round;stroke-miterlimit:10;}
	.st81{clip-path:url(#SVGID_62_);fill:#F3AA8A;}
	.st82{clip-path:url(#SVGID_62_);fill:#FFFFFF;}
	.st83{opacity:0;clip-path:url(#SVGID_62_);fill:#D8D9DA;}
	
		.st84{clip-path:url(#SVGID_62_);fill:none;stroke:url(#SVGID_64_);stroke-width:2.1459;stroke-linecap:round;stroke-linejoin:round;stroke-miterlimit:10;}
	.st85{clip-path:url(#SVGID_62_);}
	.st86{fill:none;stroke:#D8D9DA;stroke-width:2.1459;stroke-linecap:round;stroke-linejoin:round;stroke-miterlimit:10;}
	.st87{clip-path:url(#SVGID_62_);fill:none;stroke:#39A74A;stroke-width:2.1459;stroke-miterlimit:10;}
	.st88{clip-path:url(#SVGID_62_);fill:#E3F6FF;}
	
		.st89{clip-path:url(#SVGID_66_);fill:none;stroke:url(#SVGID_67_);stroke-width:27.1333;stroke-linecap:round;stroke-linejoin:round;stroke-miterlimit:10;}
	.st90{clip-path:url(#SVGID_66_);fill:#F3AA8A;}
	.st91{clip-path:url(#SVGID_66_);fill:url(#SVGID_68_);}
	.st92{clip-path:url(#SVGID_66_);fill:#1D3160;}
	.st93{clip-path:url(#SVGID_62_);fill:url(#SVGID_69_);}
	.st94{fill:url(#SVGID_70_);}
	.st95{fill:url(#SVGID_71_);}
	.st96{fill:url(#SVGID_72_);}
	.st97{fill:url(#SVGID_73_);}
	.st98{fill:url(#SVGID_74_);}
	.st99{fill:url(#SVGID_75_);}
	.st100{opacity:0;fill:url(#SVGID_76_);}
	.st101{fill:url(#SVGID_77_);}
	.st102{fill:#E3F6FF;}
	.st103{fill:none;stroke:#DC325A;stroke-width:3;stroke-linecap:round;stroke-linejoin:round;stroke-miterlimit:10;}
	.st104{fill:none;stroke:url(#SVGID_78_);stroke-width:12.5181;stroke-linecap:round;stroke-linejoin:round;stroke-miterlimit:10;}
	.st105{fill:url(#SVGID_79_);}
	.st106{fill:url(#SVGID_80_);}
	.st107{fill:none;stroke:url(#SVGID_81_);stroke-width:17.7;stroke-linecap:round;stroke-linejoin:round;stroke-miterlimit:10;}
	.st108{fill:url(#SVGID_82_);}
	.st109{fill:url(#SVGID_83_);}
	.st110{fill:url(#SVGID_84_);}
	.st111{fill:none;stroke:url(#SVGID_85_);stroke-width:12.5181;stroke-linecap:round;stroke-linejoin:round;stroke-miterlimit:10;}
	.st112{fill:url(#SVGID_86_);}
	.st113{fill:url(#SVGID_87_);}
	.st114{clip-path:url(#SVGID_88_);}
</style>
<g id="Слой_1">
	<path class="st35" d="M1472.7,694.5c0,5.5-4.5,10-10,10H10.1c-5.5,0-10-4.5-10-10V10.1c0-5.5,4.5-10,10-10h1452.7
		c5.5,0,10,4.5,10,10V694.5z"/>
	<g>
		<defs>
			<rect id="SVGID_57_" x="1.2" y="0.1" width="1471.6" height="702.1"/>
		</defs>
		<clipPath id="SVGID_2_">
			<use xlink:href="#SVGID_57_"  style="overflow:visible;"/>
		</clipPath>
		<g style="clip-path:url(#SVGID_2_);">
			<g>
				<g>
					<path class="st40" d="M1381-152.3l32.8,62.9l-58.6,101.4c-7.3,12.5-20.4,19.4-33.9,19.4c-6.7,0-13.6-1.7-19.8-5.4
						c-18.7-10.9-25-35-14-53.7l94.4-162.7c0-0.1,0.1-0.1,0.1-0.2C1375.4-179.2,1374.5-164.8,1381-152.3z"/>
				</g>
				<g>
					<g>
						<g>
							<path class="st40" d="M1260.3-124.5c4.4-2.3,8.9-3.6,13.5-4.2c0.8-0.1,1.5-0.1,2.3-0.2c0.7,0,1.5-0.1,2.2-0.1
								c0.2,0,0.3,0,0.5,0c0.8,0,1.5,0,2.3,0.1c0.8,0.1,1.6,0.1,2.3,0.2c1.7,0.2,3.4,0.5,5,1c0.9,0.3,1.9,0.6,2.8,0.9
								c9.2,3.1,17.2,9.6,22.1,18.9l9.9,19l32.8,62.9c6.5,12.5,5.6,26.9-1.1,38.2c-0.5,0.8-0.9,1.5-1.4,2.3c-1,1.4-2.1,2.8-3.3,4.1
								c-0.6,0.7-1.2,1.3-1.9,1.9c-0.6,0.6-1.3,1.2-2,1.7c-0.1,0.1-0.2,0.2-0.3,0.2c-0.5,0.5-1,0.9-1.6,1.2
								c-0.4,0.3-0.7,0.6-1.1,0.8c-0.4,0.3-0.8,0.6-1.2,0.8c-0.2,0.1-0.4,0.2-0.6,0.4c-0.6,0.4-1.3,0.8-1.9,1.1c0,0-0.1,0.1-0.2,0.1
								c-0.1,0-0.1,0-0.2,0.1c-0.7,0.4-1.4,0.7-2,1c-0.6,0.3-1.1,0.5-1.7,0.7c-0.4,0.2-0.9,0.4-1.4,0.5c-0.3,0.1-0.6,0.2-0.9,0.3
								c-0.4,0.1-0.8,0.2-1.1,0.3c-0.4,0.2-0.9,0.3-1.3,0.4c-3.1,0.8-6.4,1.2-9.5,1.2c-1.7,0-3.4-0.1-5.1-0.3c0,0-0.1,0-0.2,0
								c-0.9-0.1-1.7-0.3-2.6-0.5c-2.5-0.5-4.9-1.2-7.2-2.2c-0.4-0.2-0.7-0.3-1-0.5c-0.6-0.2-1.1-0.5-1.7-0.8
								c-0.8-0.4-1.5-0.8-2.3-1.3c-0.8-0.5-1.5-0.9-2.3-1.4c-1.4-1-2.8-2.1-4.1-3.3c-0.7-0.6-1.3-1.2-1.9-1.9
								c-0.6-0.6-1.2-1.3-1.7-2c-0.1-0.1-0.2-0.2-0.3-0.3c-0.4-0.5-0.8-1-1.2-1.6c-0.3-0.4-0.6-0.7-0.8-1.1
								c-0.3-0.4-0.6-0.8-0.8-1.2c-0.1-0.2-0.3-0.4-0.4-0.6c-0.4-0.6-0.8-1.3-1.1-1.9c0,0-0.1-0.1-0.1-0.2l-0.6-1.1l-9.4-18
								l-32.7-62.8C1233.6-90.7,1241-114.5,1260.3-124.5z"/>
						</g>
					</g>
					<path class="st40" d="M1250.3,26.9c-5.8,3-12,4.5-18.1,4.5c-14.2,0-27.8-7.7-34.8-21.1l-51.7-99.1l36.2-61.7
						c6-10.2,6.8-22.1,3.3-32.5l81.9,157C1276.9-6.8,1269.5,16.9,1250.3,26.9z"/>
					<path class="st40" d="M1023.6-152.3l32.8,62.9L997.8,12.1c-7.3,12.5-20.4,19.4-33.9,19.4c-6.7,0-13.6-1.7-19.8-5.4
						c-18.7-10.9-25-35-14-53.7l94.4-162.7c0-0.1,0.1-0.1,0.1-0.2C1017.9-179.2,1017-164.8,1023.6-152.3z"/>
				</g>
				<g>
					<g>
						<g>
							<path class="st40" d="M902.9-124.5c4.4-2.3,8.9-3.6,13.5-4.2c0.8-0.1,1.5-0.1,2.3-0.2c0.7,0,1.5-0.1,2.2-0.1
								c0.2,0,0.3,0,0.5,0c0.8,0,1.5,0,2.3,0.1c0.8,0.1,1.6,0.1,2.3,0.2c1.7,0.2,3.4,0.5,5,1c0.9,0.3,1.9,0.6,2.8,0.9
								c9.2,3.1,17.2,9.6,22.1,18.9l9.9,19l32.8,62.9c6.5,12.5,5.6,26.9-1.1,38.2c-0.5,0.8-0.9,1.5-1.4,2.3c-1,1.4-2.1,2.8-3.3,4.1
								c-0.6,0.7-1.2,1.3-1.9,1.9c-0.6,0.6-1.3,1.2-2,1.7c-0.1,0.1-0.2,0.2-0.3,0.2c-0.5,0.5-1,0.9-1.6,1.2
								c-0.4,0.3-0.7,0.6-1.1,0.8c-0.4,0.3-0.8,0.6-1.2,0.8c-0.2,0.1-0.4,0.2-0.6,0.4c-0.6,0.4-1.3,0.8-1.9,1.1c0,0-0.1,0.1-0.2,0.1
								c-0.1,0-0.1,0-0.2,0.1c-0.7,0.4-1.4,0.7-2,1c-0.6,0.3-1.1,0.5-1.7,0.7c-0.4,0.2-0.9,0.4-1.4,0.5c-0.3,0.1-0.6,0.2-0.9,0.3
								c-0.4,0.1-0.8,0.2-1.1,0.3c-0.4,0.2-0.9,0.3-1.3,0.4c-3.1,0.8-6.4,1.2-9.5,1.2c-1.7,0-3.4-0.1-5.1-0.3c0,0-0.1,0-0.2,0
								c-0.9-0.1-1.7-0.3-2.6-0.5c-2.5-0.5-4.9-1.2-7.2-2.2c-0.4-0.2-0.7-0.3-1-0.5c-0.6-0.2-1.1-0.5-1.7-0.8
								c-0.8-0.4-1.5-0.8-2.3-1.3c-0.8-0.5-1.5-0.9-2.3-1.4c-1.4-1-2.8-2.1-4.1-3.3c-0.7-0.6-1.3-1.2-1.9-1.9
								c-0.6-0.6-1.2-1.3-1.7-2c-0.1-0.1-0.2-0.2-0.3-0.3c-0.4-0.5-0.8-1-1.2-1.6c-0.3-0.4-0.6-0.7-0.8-1.1
								c-0.3-0.4-0.6-0.8-0.8-1.2c-0.1-0.2-0.3-0.4-0.4-0.6c-0.4-0.6-0.8-1.3-1.1-1.9c0,0-0.1-0.1-0.1-0.2l-0.6-1.1l-9.4-18
								l-32.7-62.8C876.3-90.7,883.7-114.5,902.9-124.5z"/>
						</g>
					</g>
					<path class="st40" d="M892.9,26.9c-5.8,3-12,4.5-18.1,4.5c-14.2,0-27.8-7.7-34.8-21.1l-51.7-99.1l36.2-61.7
						c6-10.2,6.8-22.1,3.3-32.5l81.9,157C919.6-6.8,912.2,16.9,892.9,26.9z"/>
					<path class="st40" d="M666.2-152.3l32.8,62.9L640.5,12.1c-7.3,12.5-20.4,19.4-33.9,19.4c-6.7,0-13.6-1.7-19.8-5.4
						c-18.7-10.9-25-35-14-53.7l94.4-162.7c0-0.1,0.1-0.1,0.1-0.2C660.6-179.2,659.7-164.8,666.2-152.3z"/>
				</g>
				<g>
					<g>
						<g>
							<path class="st40" d="M545.4-124.5c4.4-2.3,8.9-3.6,13.5-4.2c0.8-0.1,1.5-0.1,2.3-0.2c0.7,0,1.5-0.1,2.2-0.1
								c0.2,0,0.3,0,0.5,0c0.8,0,1.5,0,2.3,0.1c0.8,0.1,1.6,0.1,2.3,0.2c1.7,0.2,3.4,0.5,5,1c0.9,0.3,1.9,0.6,2.8,0.9
								c9.2,3.1,17.2,9.6,22.1,18.9l9.9,19l32.8,62.9c6.5,12.5,5.6,26.9-1.1,38.2c-0.5,0.8-0.9,1.5-1.4,2.3c-1,1.4-2.1,2.8-3.3,4.1
								c-0.6,0.7-1.2,1.3-1.9,1.9c-0.6,0.6-1.3,1.2-2,1.7c-0.1,0.1-0.2,0.2-0.3,0.2c-0.5,0.5-1,0.9-1.6,1.2
								c-0.4,0.3-0.7,0.6-1.1,0.8c-0.4,0.3-0.8,0.6-1.2,0.8c-0.2,0.1-0.4,0.2-0.6,0.4c-0.6,0.4-1.3,0.8-1.9,1.1c0,0-0.1,0.1-0.2,0.1
								c-0.1,0-0.1,0-0.2,0.1c-0.7,0.4-1.4,0.7-2,1c-0.6,0.3-1.1,0.5-1.7,0.7c-0.4,0.2-0.9,0.4-1.4,0.5c-0.3,0.1-0.6,0.2-0.9,0.3
								c-0.4,0.1-0.8,0.2-1.1,0.3c-0.4,0.2-0.9,0.3-1.3,0.4c-3.1,0.8-6.4,1.2-9.5,1.2c-1.7,0-3.4-0.1-5.1-0.3c0,0-0.1,0-0.2,0
								c-0.9-0.1-1.7-0.3-2.6-0.5c-2.5-0.5-4.9-1.2-7.2-2.2c-0.4-0.2-0.7-0.3-1-0.5c-0.6-0.2-1.1-0.5-1.7-0.8
								c-0.8-0.4-1.5-0.8-2.3-1.3c-0.8-0.5-1.5-0.9-2.3-1.4c-1.4-1-2.8-2.1-4.1-3.3c-0.7-0.6-1.3-1.2-1.9-1.9
								c-0.6-0.6-1.2-1.3-1.7-2c-0.1-0.1-0.2-0.2-0.3-0.3c-0.4-0.5-0.8-1-1.2-1.6c-0.3-0.4-0.6-0.7-0.8-1.1
								c-0.3-0.4-0.6-0.8-0.8-1.2c-0.1-0.2-0.3-0.4-0.4-0.6c-0.4-0.6-0.8-1.3-1.1-1.9c0,0-0.1-0.1-0.1-0.2l-0.6-1.1l-9.4-18
								l-32.7-62.8C518.7-90.7,526.2-114.5,545.4-124.5z"/>
						</g>
					</g>
					<path class="st40" d="M535.4,26.9c-5.8,3-12,4.5-18.1,4.5c-14.2,0-27.8-7.7-34.8-21.1l-51.7-99.1l36.2-61.7
						c6-10.2,6.8-22.1,3.3-32.5l81.9,157C562.1-6.8,554.6,16.9,535.4,26.9z"/>
					<path class="st40" d="M308.7-152.3l32.8,62.9L283,12.1c-7.3,12.5-20.4,19.4-33.9,19.4c-6.7,0-13.6-1.7-19.8-5.4
						c-18.7-10.9-25-35-14-53.7l94.4-162.7c0-0.1,0.1-0.1,0.1-0.2C303.1-179.2,302.2-164.8,308.7-152.3z"/>
				</g>
				<g>
					<g>
						<g>
							<path class="st40" d="M188.1-124.5c4.4-2.3,8.9-3.6,13.5-4.2c0.8-0.1,1.5-0.1,2.3-0.2c0.7,0,1.5-0.1,2.2-0.1
								c0.2,0,0.3,0,0.5,0c0.8,0,1.5,0,2.3,0.1c0.8,0.1,1.6,0.1,2.3,0.2c1.7,0.2,3.4,0.5,5,1c0.9,0.3,1.9,0.6,2.8,0.9
								c9.2,3.1,17.2,9.6,22.1,18.9l9.9,19l32.8,62.9c6.5,12.5,5.6,26.9-1.1,38.2c-0.5,0.8-0.9,1.5-1.4,2.3c-1,1.4-2.1,2.8-3.3,4.1
								c-0.6,0.7-1.2,1.3-1.9,1.9c-0.6,0.6-1.3,1.2-2,1.7c-0.1,0.1-0.2,0.2-0.3,0.2c-0.5,0.5-1,0.9-1.6,1.2
								c-0.4,0.3-0.7,0.6-1.1,0.8c-0.4,0.3-0.8,0.6-1.2,0.8c-0.2,0.1-0.4,0.2-0.6,0.4c-0.6,0.4-1.3,0.8-1.9,1.1c0,0-0.1,0.1-0.2,0.1
								c-0.1,0-0.1,0-0.2,0.1c-0.7,0.4-1.4,0.7-2,1c-0.6,0.3-1.1,0.5-1.7,0.7c-0.4,0.2-0.9,0.4-1.4,0.5c-0.3,0.1-0.6,0.2-0.9,0.3
								c-0.4,0.1-0.8,0.2-1.1,0.3c-0.4,0.2-0.9,0.3-1.3,0.4c-3.1,0.8-6.4,1.2-9.5,1.2c-1.7,0-3.4-0.1-5.1-0.3c0,0-0.1,0-0.2,0
								c-0.9-0.1-1.7-0.3-2.6-0.5c-2.5-0.5-4.9-1.2-7.2-2.2c-0.4-0.2-0.7-0.3-1-0.5c-0.6-0.2-1.1-0.5-1.7-0.8
								c-0.8-0.4-1.5-0.8-2.3-1.3c-0.8-0.5-1.5-0.9-2.3-1.4c-1.4-1-2.8-2.1-4.1-3.3c-0.7-0.6-1.3-1.2-1.9-1.9
								c-0.6-0.6-1.2-1.3-1.7-2c-0.1-0.1-0.2-0.2-0.3-0.3c-0.4-0.5-0.8-1-1.2-1.6c-0.3-0.4-0.6-0.7-0.8-1.1
								c-0.3-0.4-0.6-0.8-0.8-1.2c-0.1-0.2-0.3-0.4-0.4-0.6c-0.4-0.6-0.8-1.3-1.1-1.9c0,0-0.1-0.1-0.1-0.2l-0.6-1.1l-9.4-18
								l-32.7-62.8C161.4-90.7,168.9-114.5,188.1-124.5z"/>
						</g>
					</g>
					<path class="st40" d="M178.1,26.9c-5.8,3-12,4.5-18.1,4.5c-14.2,0-27.8-7.7-34.8-21.1L73.4-88.8l36.2-61.7
						c6-10.2,6.8-22.1,3.3-32.5l81.9,157C204.8-6.8,197.3,16.9,178.1,26.9z"/>
				</g>
			</g>
			<g>
				<g>
					<g>
						<g>
							<path class="st40" d="M1434.1,37.8c4.4-2.3,8.9-3.6,13.5-4.2c0.8-0.1,1.5-0.1,2.3-0.2c0.7,0,1.5-0.1,2.2-0.1
								c0.2,0,0.3,0,0.5,0c0.8,0,1.5,0,2.3,0.1c0.8,0.1,1.6,0.1,2.3,0.2c1.7,0.2,3.4,0.5,5,1c0.9,0.3,1.9,0.6,2.8,0.9
								c9.2,3.1,17.2,9.6,22.1,18.9l9.9,19l32.8,62.9c6.5,12.5,5.6,26.9-1.1,38.2c-0.5,0.8-0.9,1.5-1.4,2.3c-1,1.4-2.1,2.8-3.3,4.1
								c-0.6,0.7-1.2,1.3-1.9,1.9c-0.6,0.6-1.3,1.2-2,1.7c-0.1,0.1-0.2,0.2-0.3,0.2c-0.5,0.5-1,0.9-1.6,1.2
								c-0.4,0.3-0.7,0.6-1.1,0.8c-0.4,0.3-0.8,0.6-1.2,0.8c-0.2,0.1-0.4,0.2-0.6,0.4c-0.6,0.4-1.3,0.8-1.9,1.1c0,0-0.1,0.1-0.2,0.1
								c-0.1,0-0.1,0-0.2,0.1c-0.7,0.4-1.4,0.7-2,1c-0.6,0.3-1.1,0.5-1.7,0.7c-0.4,0.2-0.9,0.4-1.4,0.5c-0.3,0.1-0.6,0.2-0.9,0.3
								c-0.4,0.1-0.8,0.2-1.1,0.3c-0.4,0.2-0.9,0.3-1.3,0.4c-3.1,0.8-6.4,1.2-9.5,1.2c-1.7,0-3.4-0.1-5.1-0.3c0,0-0.1,0-0.2,0
								c-0.9-0.1-1.7-0.3-2.6-0.5c-2.5-0.5-4.9-1.2-7.2-2.2c-0.4-0.2-0.7-0.3-1-0.5c-0.6-0.2-1.1-0.5-1.7-0.8
								c-0.8-0.4-1.5-0.8-2.3-1.3c-0.8-0.5-1.5-0.9-2.3-1.4c-1.4-1-2.8-2.1-4.1-3.3c-0.7-0.6-1.3-1.2-1.9-1.9
								c-0.6-0.6-1.2-1.3-1.7-2c-0.1-0.1-0.2-0.2-0.3-0.3c-0.4-0.5-0.8-1-1.2-1.6c-0.3-0.4-0.6-0.7-0.8-1.1
								c-0.3-0.4-0.6-0.8-0.8-1.2c-0.1-0.2-0.3-0.4-0.4-0.6c-0.4-0.6-0.8-1.3-1.1-1.9c0,0-0.1-0.1-0.1-0.2l-0.6-1.1l-9.4-18
								l-32.7-62.8C1407.4,71.6,1414.9,47.9,1434.1,37.8z"/>
						</g>
					</g>
					<path class="st40" d="M1424.1,189.2c-5.8,3-12,4.5-18.1,4.5c-14.2,0-27.8-7.7-34.8-21.1l-51.7-99.1l36.2-61.7
						c6-10.2,6.8-22.1,3.3-32.5l81.9,157C1450.8,155.5,1443.3,179.2,1424.1,189.2z"/>
					<path class="st40" d="M1197.4,10l32.8,62.9l-58.6,101.4c-7.3,12.5-20.4,19.4-33.9,19.4c-6.7,0-13.6-1.7-19.8-5.4
						c-18.7-10.9-25-35-14-53.7L1198.3-28c0-0.1,0.1-0.1,0.1-0.2C1191.8-16.9,1190.9-2.5,1197.4,10z"/>
					<g>
						<g>
							<path class="st40" d="M1293.1,108.6c-4.4,2.3-8.9,3.6-13.5,4.2c-0.8,0.1-1.5,0.1-2.3,0.2c-0.7,0-1.5,0.1-2.2,0.1
								c-0.2,0-0.3,0-0.5,0c-0.8,0-1.5,0-2.3-0.1c-0.8-0.1-1.6-0.1-2.3-0.2c-1.7-0.2-3.4-0.5-5-1c-0.9-0.3-1.9-0.6-2.8-0.9
								c-9.2-3.1-17.2-9.6-22.1-18.9l-9.9-19L1197.4,10c-6.5-12.5-5.6-26.9,1.1-38.2c0.5-0.8,0.9-1.5,1.4-2.3c1-1.4,2.1-2.8,3.3-4.1
								c0.6-0.7,1.2-1.3,1.9-1.9c0.6-0.6,1.3-1.2,2-1.7c0.1-0.1,0.2-0.2,0.3-0.2c0.5-0.5,1-0.9,1.6-1.2c0.4-0.3,0.7-0.6,1.1-0.8
								c0.4-0.3,0.8-0.6,1.2-0.8c0.2-0.1,0.4-0.2,0.6-0.4c0.6-0.4,1.3-0.8,1.9-1.1c0,0,0.1-0.1,0.2-0.1c0.1,0,0.1,0,0.2-0.1
								c0.7-0.4,1.4-0.7,2-1c0.6-0.3,1.1-0.5,1.7-0.7c0.4-0.2,0.9-0.4,1.4-0.5c0.3-0.1,0.6-0.2,0.9-0.3c0.4-0.1,0.8-0.2,1.1-0.3
								c0.4-0.2,0.9-0.3,1.3-0.4c3.1-0.8,6.4-1.2,9.5-1.2c1.7,0,3.4,0.1,5.1,0.3c0,0,0.1,0,0.2,0c0.9,0.1,1.7,0.3,2.6,0.5
								c2.5,0.5,4.9,1.2,7.2,2.2c0.4,0.2,0.7,0.3,1,0.5c0.6,0.2,1.1,0.5,1.7,0.8c0.8,0.4,1.5,0.8,2.3,1.3c0.8,0.5,1.5,0.9,2.3,1.4
								c1.4,1,2.8,2.1,4.1,3.3c0.7,0.6,1.3,1.2,1.9,1.9c0.6,0.6,1.2,1.3,1.7,2c0.1,0.1,0.2,0.2,0.3,0.3c0.4,0.5,0.8,1,1.2,1.6
								c0.3,0.4,0.6,0.7,0.8,1.1c0.3,0.4,0.6,0.8,0.8,1.2c0.1,0.2,0.3,0.4,0.4,0.6c0.4,0.6,0.8,1.3,1.1,1.9c0,0,0.1,0.1,0.1,0.2
								l0.6,1.1l9.4,18l32.7,62.8C1319.8,74.9,1312.3,98.6,1293.1,108.6z"/>
						</g>
					</g>
					<path class="st40" d="M1355.6,11.7l-36.2,61.7L1286.4,10c-5.5-10.6-5.7-22.6-1.6-32.8c0,0,0,0,0,0l3-5.2
						c6.9-11.7,18.8-18.5,31.4-19.3c0.7,0,1.5-0.1,2.2-0.1c14.1,0.1,27.6,7.8,34.6,21.1l2.8,5.5l0,0
						C1362.4-10.3,1361.6,1.5,1355.6,11.7z"/>
				</g>
				<g>
					<g>
						<g>
							<path class="st40" d="M1076.7,37.8c4.4-2.3,8.9-3.6,13.5-4.2c0.8-0.1,1.5-0.1,2.3-0.2c0.7,0,1.5-0.1,2.2-0.1
								c0.2,0,0.3,0,0.5,0c0.8,0,1.5,0,2.3,0.1c0.8,0.1,1.6,0.1,2.3,0.2c1.7,0.2,3.4,0.5,5,1c0.9,0.3,1.9,0.6,2.8,0.9
								c9.2,3.1,17.2,9.6,22.1,18.9l9.9,19l32.8,62.9c6.5,12.5,5.6,26.9-1.1,38.2c-0.5,0.8-0.9,1.5-1.4,2.3c-1,1.4-2.1,2.8-3.3,4.1
								c-0.6,0.7-1.2,1.3-1.9,1.9c-0.6,0.6-1.3,1.2-2,1.7c-0.1,0.1-0.2,0.2-0.3,0.2c-0.5,0.5-1,0.9-1.6,1.2
								c-0.4,0.3-0.7,0.6-1.1,0.8c-0.4,0.3-0.8,0.6-1.2,0.8c-0.2,0.1-0.4,0.2-0.6,0.4c-0.6,0.4-1.3,0.8-1.9,1.1c0,0-0.1,0.1-0.2,0.1
								c-0.1,0-0.1,0-0.2,0.1c-0.7,0.4-1.4,0.7-2,1c-0.6,0.3-1.1,0.5-1.7,0.7c-0.4,0.2-0.9,0.4-1.4,0.5c-0.3,0.1-0.6,0.2-0.9,0.3
								c-0.4,0.1-0.8,0.2-1.1,0.3c-0.4,0.2-0.9,0.3-1.3,0.4c-3.1,0.8-6.4,1.2-9.5,1.2c-1.7,0-3.4-0.1-5.1-0.3c0,0-0.1,0-0.2,0
								c-0.9-0.1-1.7-0.3-2.6-0.5c-2.5-0.5-4.9-1.2-7.2-2.2c-0.4-0.2-0.7-0.3-1-0.5c-0.6-0.2-1.1-0.5-1.7-0.8
								c-0.8-0.4-1.5-0.8-2.3-1.3c-0.8-0.5-1.5-0.9-2.3-1.4c-1.4-1-2.8-2.1-4.1-3.3c-0.7-0.6-1.3-1.2-1.9-1.9
								c-0.6-0.6-1.2-1.3-1.7-2c-0.1-0.1-0.2-0.2-0.3-0.3c-0.4-0.5-0.8-1-1.2-1.6c-0.3-0.4-0.6-0.7-0.8-1.1
								c-0.3-0.4-0.6-0.8-0.8-1.2c-0.1-0.2-0.3-0.4-0.4-0.6c-0.4-0.6-0.8-1.3-1.1-1.9c0,0-0.1-0.1-0.1-0.2l-0.6-1.1l-9.4-18
								L1060,90.8C1050,71.6,1057.5,47.9,1076.7,37.8z"/>
						</g>
					</g>
					<path class="st40" d="M1066.7,189.2c-5.8,3-12,4.5-18.1,4.5c-14.2,0-27.8-7.7-34.8-21.1L962,73.5l36.2-61.7
						c6-10.2,6.8-22.1,3.3-32.5l81.9,157C1093.4,155.5,1085.9,179.2,1066.7,189.2z"/>
					<path class="st40" d="M840,10L872.8,73l-58.6,101.4c-7.3,12.5-20.4,19.4-33.9,19.4c-6.7,0-13.6-1.7-19.8-5.4
						c-18.7-10.9-25-35-14-53.7L840.9-28c0-0.1,0.1-0.1,0.1-0.2C834.4-16.9,833.5-2.5,840,10z"/>
					<g>
						<g>
							<path class="st40" d="M935.7,108.6c-4.4,2.3-8.9,3.6-13.5,4.2c-0.8,0.1-1.5,0.1-2.3,0.2c-0.7,0-1.5,0.1-2.2,0.1
								c-0.2,0-0.3,0-0.5,0c-0.8,0-1.5,0-2.3-0.1c-0.8-0.1-1.6-0.1-2.3-0.2c-1.7-0.2-3.4-0.5-5-1c-0.9-0.3-1.9-0.6-2.8-0.9
								c-9.2-3.1-17.2-9.6-22.1-18.9l-9.9-19L840,10c-6.5-12.5-5.6-26.9,1.1-38.2c0.5-0.8,0.9-1.5,1.4-2.3c1-1.4,2.1-2.8,3.3-4.1
								c0.6-0.7,1.2-1.3,1.9-1.9c0.6-0.6,1.3-1.2,2-1.7c0.1-0.1,0.2-0.2,0.3-0.2c0.5-0.5,1-0.9,1.6-1.2c0.4-0.3,0.7-0.6,1.1-0.8
								c0.4-0.3,0.8-0.6,1.2-0.8c0.2-0.1,0.4-0.2,0.6-0.4c0.6-0.4,1.3-0.8,1.9-1.1c0,0,0.1-0.1,0.2-0.1c0.1,0,0.1,0,0.2-0.1
								c0.7-0.4,1.4-0.7,2-1c0.6-0.3,1.1-0.5,1.7-0.7c0.4-0.2,0.9-0.4,1.4-0.5c0.3-0.1,0.6-0.2,0.9-0.3c0.4-0.1,0.8-0.2,1.1-0.3
								c0.4-0.2,0.9-0.3,1.3-0.4c3.1-0.8,6.4-1.2,9.5-1.2c1.7,0,3.4,0.1,5.1,0.3c0,0,0.1,0,0.2,0c0.9,0.1,1.7,0.3,2.6,0.5
								c2.5,0.5,4.9,1.2,7.2,2.2c0.4,0.2,0.7,0.3,1,0.5c0.6,0.2,1.1,0.5,1.7,0.8c0.8,0.4,1.5,0.8,2.3,1.3c0.8,0.5,1.5,0.9,2.3,1.4
								c1.4,1,2.8,2.1,4.1,3.3c0.7,0.6,1.3,1.2,1.9,1.9c0.6,0.6,1.2,1.3,1.7,2c0.1,0.1,0.2,0.2,0.3,0.3c0.4,0.5,0.8,1,1.2,1.6
								c0.3,0.4,0.6,0.7,0.8,1.1c0.3,0.4,0.6,0.8,0.8,1.2c0.1,0.2,0.3,0.4,0.4,0.6c0.4,0.6,0.8,1.3,1.1,1.9c0,0,0.1,0.1,0.1,0.2
								l0.6,1.1l9.4,18l32.7,62.8C962.4,74.9,954.9,98.6,935.7,108.6z"/>
						</g>
					</g>
					<path class="st40" d="M998.2,11.7L962,73.5L929,10c-5.5-10.6-5.7-22.6-1.6-32.8c0,0,0,0,0,0l3-5.2
						c6.9-11.7,18.8-18.5,31.4-19.3c0.7,0,1.5-0.1,2.2-0.1c14.1,0.1,27.6,7.8,34.6,21.1l2.8,5.5l0,0
						C1005-10.3,1004.2,1.5,998.2,11.7z"/>
				</g>
				<g>
					<g>
						<g>
							<path class="st40" d="M719.4,37.8c4.4-2.3,8.9-3.6,13.5-4.2c0.8-0.1,1.5-0.1,2.3-0.2c0.7,0,1.5-0.1,2.2-0.1
								c0.2,0,0.3,0,0.5,0c0.8,0,1.5,0,2.3,0.1c0.8,0.1,1.6,0.1,2.3,0.2c1.7,0.2,3.4,0.5,5,1c0.9,0.3,1.9,0.6,2.8,0.9
								c9.2,3.1,17.2,9.6,22.1,18.9l9.9,19l32.8,62.9c6.5,12.5,5.6,26.9-1.1,38.2c-0.5,0.8-0.9,1.5-1.4,2.3c-1,1.4-2.1,2.8-3.3,4.1
								c-0.6,0.7-1.2,1.3-1.9,1.9c-0.6,0.6-1.3,1.2-2,1.7c-0.1,0.1-0.2,0.2-0.3,0.2c-0.5,0.5-1,0.9-1.6,1.2
								c-0.4,0.3-0.7,0.6-1.1,0.8c-0.4,0.3-0.8,0.6-1.2,0.8c-0.2,0.1-0.4,0.2-0.6,0.4c-0.6,0.4-1.3,0.8-1.9,1.1c0,0-0.1,0.1-0.2,0.1
								c-0.1,0-0.1,0-0.2,0.1c-0.7,0.4-1.4,0.7-2,1c-0.6,0.3-1.1,0.5-1.7,0.7c-0.4,0.2-0.9,0.4-1.4,0.5c-0.3,0.1-0.6,0.2-0.9,0.3
								c-0.4,0.1-0.8,0.2-1.1,0.3c-0.4,0.2-0.9,0.3-1.3,0.4c-3.1,0.8-6.4,1.2-9.5,1.2c-1.7,0-3.4-0.1-5.1-0.3c0,0-0.1,0-0.2,0
								c-0.9-0.1-1.7-0.3-2.6-0.5c-2.5-0.5-4.9-1.2-7.2-2.2c-0.4-0.2-0.7-0.3-1-0.5c-0.6-0.2-1.1-0.5-1.7-0.8
								c-0.8-0.4-1.5-0.8-2.3-1.3c-0.8-0.5-1.5-0.9-2.3-1.4c-1.4-1-2.8-2.1-4.1-3.3c-0.7-0.6-1.3-1.2-1.9-1.9
								c-0.6-0.6-1.2-1.3-1.7-2c-0.1-0.1-0.2-0.2-0.3-0.3c-0.4-0.5-0.8-1-1.2-1.6c-0.3-0.4-0.6-0.7-0.8-1.1
								c-0.3-0.4-0.6-0.8-0.8-1.2c-0.1-0.2-0.3-0.4-0.4-0.6c-0.4-0.6-0.8-1.3-1.1-1.9c0,0-0.1-0.1-0.1-0.2l-0.6-1.1l-9.4-18
								l-32.7-62.8C692.7,71.6,700.1,47.9,719.4,37.8z"/>
						</g>
					</g>
					<path class="st40" d="M709.4,189.2c-5.8,3-12,4.5-18.1,4.5c-14.2,0-27.8-7.7-34.8-21.1l-51.7-99.1l36.2-61.7
						c6-10.2,6.8-22.1,3.3-32.5l81.9,157C736,155.5,728.6,179.2,709.4,189.2z"/>
					<path class="st40" d="M482.7,10L515.5,73l-58.6,101.4c-7.3,12.5-20.4,19.4-33.9,19.4c-6.7,0-13.6-1.7-19.8-5.4
						c-18.7-10.9-25-35-14-53.7L483.6-28c0-0.1,0.1-0.1,0.1-0.2C477-16.9,476.1-2.5,482.7,10z"/>
					<g>
						<g>
							<path class="st40" d="M578.4,108.6c-4.4,2.3-8.9,3.6-13.5,4.2c-0.8,0.1-1.5,0.1-2.3,0.2c-0.7,0-1.5,0.1-2.2,0.1
								c-0.2,0-0.3,0-0.5,0c-0.8,0-1.5,0-2.3-0.1c-0.8-0.1-1.6-0.1-2.3-0.2c-1.7-0.2-3.4-0.5-5-1c-0.9-0.3-1.9-0.6-2.8-0.9
								c-9.2-3.1-17.2-9.6-22.1-18.9l-9.9-19L482.7,10c-6.5-12.5-5.6-26.9,1.1-38.2c0.5-0.8,0.9-1.5,1.4-2.3c1-1.4,2.1-2.8,3.3-4.1
								c0.6-0.7,1.2-1.3,1.9-1.9c0.6-0.6,1.3-1.2,2-1.7c0.1-0.1,0.2-0.2,0.3-0.2c0.5-0.5,1-0.9,1.6-1.2c0.4-0.3,0.7-0.6,1.1-0.8
								c0.4-0.3,0.8-0.6,1.2-0.8c0.2-0.1,0.4-0.2,0.6-0.4c0.6-0.4,1.3-0.8,1.9-1.1c0,0,0.1-0.1,0.2-0.1c0.1,0,0.1,0,0.2-0.1
								c0.7-0.4,1.4-0.7,2-1c0.6-0.3,1.1-0.5,1.7-0.7c0.4-0.2,0.9-0.4,1.4-0.5c0.3-0.1,0.6-0.2,0.9-0.3c0.4-0.1,0.8-0.2,1.1-0.3
								c0.4-0.2,0.9-0.3,1.3-0.4c3.1-0.8,6.4-1.2,9.5-1.2c1.7,0,3.4,0.1,5.1,0.3c0,0,0.1,0,0.2,0c0.9,0.1,1.7,0.3,2.6,0.5
								c2.5,0.5,4.9,1.2,7.2,2.2c0.4,0.2,0.7,0.3,1,0.5c0.6,0.2,1.1,0.5,1.7,0.8c0.8,0.4,1.5,0.8,2.3,1.3c0.8,0.5,1.5,0.9,2.3,1.4
								c1.4,1,2.8,2.1,4.1,3.3c0.7,0.6,1.3,1.2,1.9,1.9c0.6,0.6,1.2,1.3,1.7,2c0.1,0.1,0.2,0.2,0.3,0.3c0.4,0.5,0.8,1,1.2,1.6
								c0.3,0.4,0.6,0.7,0.8,1.1c0.3,0.4,0.6,0.8,0.8,1.2c0.1,0.2,0.3,0.4,0.4,0.6c0.4,0.6,0.8,1.3,1.1,1.9c0,0,0.1,0.1,0.1,0.2
								l0.6,1.1l9.4,18L595,55.7C605,74.9,597.6,98.6,578.4,108.6z"/>
						</g>
					</g>
					<path class="st40" d="M640.9,11.7l-36.2,61.7l-33-63.4c-5.5-10.6-5.7-22.6-1.6-32.8c0,0,0,0,0,0l3-5.2
						c6.9-11.7,18.8-18.5,31.4-19.3c0.7,0,1.5-0.1,2.2-0.1c14.1,0.1,27.6,7.8,34.6,21.1l2.8,5.5l0,0
						C647.7-10.3,646.9,1.5,640.9,11.7z"/>
				</g>
				<g>
					<g>
						<g>
							<path class="st40" d="M361.8,37.8c4.4-2.3,8.9-3.6,13.5-4.2c0.8-0.1,1.5-0.1,2.3-0.2c0.7,0,1.5-0.1,2.2-0.1
								c0.2,0,0.3,0,0.5,0c0.8,0,1.5,0,2.3,0.1c0.8,0.1,1.6,0.1,2.3,0.2c1.7,0.2,3.4,0.5,5,1c0.9,0.3,1.9,0.6,2.8,0.9
								c9.2,3.1,17.2,9.6,22.1,18.9l9.9,19l32.8,62.9c6.5,12.5,5.6,26.9-1.1,38.2c-0.5,0.8-0.9,1.5-1.4,2.3c-1,1.4-2.1,2.8-3.3,4.1
								c-0.6,0.7-1.2,1.3-1.9,1.9c-0.6,0.6-1.3,1.2-2,1.7c-0.1,0.1-0.2,0.2-0.3,0.2c-0.5,0.5-1,0.9-1.6,1.2
								c-0.4,0.3-0.7,0.6-1.1,0.8c-0.4,0.3-0.8,0.6-1.2,0.8c-0.2,0.1-0.4,0.2-0.6,0.4c-0.6,0.4-1.3,0.8-1.9,1.1c0,0-0.1,0.1-0.2,0.1
								c-0.1,0-0.1,0-0.2,0.1c-0.7,0.4-1.4,0.7-2,1c-0.6,0.3-1.1,0.5-1.7,0.7c-0.4,0.2-0.9,0.4-1.4,0.5c-0.3,0.1-0.6,0.2-0.9,0.3
								c-0.4,0.1-0.8,0.2-1.1,0.3c-0.4,0.2-0.9,0.3-1.3,0.4c-3.1,0.8-6.4,1.2-9.5,1.2c-1.7,0-3.4-0.1-5.1-0.3c0,0-0.1,0-0.2,0
								c-0.9-0.1-1.7-0.3-2.6-0.5c-2.5-0.5-4.9-1.2-7.2-2.2c-0.4-0.2-0.7-0.3-1-0.5c-0.6-0.2-1.1-0.5-1.7-0.8
								c-0.8-0.4-1.5-0.8-2.3-1.3c-0.8-0.5-1.5-0.9-2.3-1.4c-1.4-1-2.8-2.1-4.1-3.3c-0.7-0.6-1.3-1.2-1.9-1.9
								c-0.6-0.6-1.2-1.3-1.7-2c-0.1-0.1-0.2-0.2-0.3-0.3c-0.4-0.5-0.8-1-1.2-1.6c-0.3-0.4-0.6-0.7-0.8-1.1
								c-0.3-0.4-0.6-0.8-0.8-1.2c-0.1-0.2-0.3-0.4-0.4-0.6c-0.4-0.6-0.8-1.3-1.1-1.9c0,0-0.1-0.1-0.1-0.2l-0.6-1.1l-9.4-18
								l-32.7-62.8C335.1,71.6,342.6,47.9,361.8,37.8z"/>
						</g>
					</g>
					<path class="st40" d="M351.8,189.2c-5.8,3-12,4.5-18.1,4.5c-14.2,0-27.8-7.7-34.8-21.1l-51.7-99.1l36.2-61.7
						c6-10.2,6.8-22.1,3.3-32.5l81.9,157C378.5,155.5,371,179.2,351.8,189.2z"/>
					<path class="st40" d="M125.1,10L158,73L99.4,174.4c-7.3,12.5-20.4,19.4-33.9,19.4c-6.7,0-13.6-1.7-19.8-5.4
						c-18.7-10.9-25-35-14-53.7L126-28c0-0.1,0.1-0.1,0.1-0.2C119.5-16.9,118.6-2.5,125.1,10z"/>
					<g>
						<g>
							<path class="st40" d="M220.8,108.6c-4.4,2.3-8.9,3.6-13.5,4.2c-0.8,0.1-1.5,0.1-2.3,0.2c-0.7,0-1.5,0.1-2.2,0.1
								c-0.2,0-0.3,0-0.5,0c-0.8,0-1.5,0-2.3-0.1c-0.8-0.1-1.6-0.1-2.3-0.2c-1.7-0.2-3.4-0.5-5-1c-0.9-0.3-1.9-0.6-2.8-0.9
								c-9.2-3.1-17.2-9.6-22.1-18.9L158,73L125.1,10c-6.5-12.5-5.6-26.9,1.1-38.2c0.5-0.8,0.9-1.5,1.4-2.3c1-1.4,2.1-2.8,3.3-4.1
								c0.6-0.7,1.2-1.3,1.9-1.9c0.6-0.6,1.3-1.2,2-1.7c0.1-0.1,0.2-0.2,0.3-0.2c0.5-0.5,1-0.9,1.6-1.2c0.4-0.3,0.7-0.6,1.1-0.8
								c0.4-0.3,0.8-0.6,1.2-0.8c0.2-0.1,0.4-0.2,0.6-0.4c0.6-0.4,1.3-0.8,1.9-1.1c0,0,0.1-0.1,0.2-0.1c0.1,0,0.1,0,0.2-0.1
								c0.7-0.4,1.4-0.7,2-1c0.6-0.3,1.1-0.5,1.7-0.7c0.4-0.2,0.9-0.4,1.4-0.5c0.3-0.1,0.6-0.2,0.9-0.3c0.4-0.1,0.8-0.2,1.1-0.3
								c0.4-0.2,0.9-0.3,1.3-0.4c3.1-0.8,6.4-1.2,9.5-1.2c1.7,0,3.4,0.1,5.1,0.3c0,0,0.1,0,0.2,0c0.9,0.1,1.7,0.3,2.6,0.5
								c2.5,0.5,4.9,1.2,7.2,2.2c0.4,0.2,0.7,0.3,1,0.5c0.6,0.2,1.1,0.5,1.7,0.8c0.8,0.4,1.5,0.8,2.3,1.3c0.8,0.5,1.5,0.9,2.3,1.4
								c1.4,1,2.8,2.1,4.1,3.3c0.7,0.6,1.3,1.2,1.9,1.9c0.6,0.6,1.2,1.3,1.7,2c0.1,0.1,0.2,0.2,0.3,0.3c0.4,0.5,0.8,1,1.2,1.6
								c0.3,0.4,0.6,0.7,0.8,1.1c0.3,0.4,0.6,0.8,0.8,1.2c0.1,0.2,0.3,0.4,0.4,0.6c0.4,0.6,0.8,1.3,1.1,1.9c0,0,0.1,0.1,0.1,0.2
								l0.6,1.1l9.4,18l32.7,62.8C247.5,74.9,240.1,98.6,220.8,108.6z"/>
						</g>
					</g>
					<path class="st40" d="M283.3,11.7l-36.2,61.7l-33-63.4c-5.5-10.6-5.7-22.6-1.6-32.8c0,0,0,0,0,0l3-5.2
						c6.9-11.7,18.8-18.5,31.4-19.3c0.7,0,1.5-0.1,2.2-0.1c14.1,0.1,27.6,7.8,34.6,21.1l2.8,5.5l0,0
						C290.2-10.3,289.3,1.5,283.3,11.7z"/>
				</g>
				<g>
					<g>
						<g>
							<path class="st40" d="M4.5,37.8c4.4-2.3,8.9-3.6,13.5-4.2c0.8-0.1,1.5-0.1,2.3-0.2c0.7,0,1.5-0.1,2.2-0.1c0.2,0,0.3,0,0.5,0
								c0.8,0,1.5,0,2.3,0.1c0.8,0.1,1.6,0.1,2.3,0.2c1.7,0.2,3.4,0.5,5,1c0.9,0.3,1.9,0.6,2.8,0.9c9.2,3.1,17.2,9.6,22.1,18.9
								l9.9,19l32.8,62.9c6.5,12.5,5.6,26.9-1.1,38.2c-0.5,0.8-0.9,1.5-1.4,2.3c-1,1.4-2.1,2.8-3.3,4.1c-0.6,0.7-1.2,1.3-1.9,1.9
								c-0.6,0.6-1.3,1.2-2,1.7c-0.1,0.1-0.2,0.2-0.3,0.2c-0.5,0.5-1,0.9-1.6,1.2c-0.4,0.3-0.7,0.6-1.1,0.8
								c-0.4,0.3-0.8,0.6-1.2,0.8c-0.2,0.1-0.4,0.2-0.6,0.4c-0.6,0.4-1.3,0.8-1.9,1.1c0,0-0.1,0.1-0.2,0.1c-0.1,0-0.1,0-0.2,0.1
								c-0.7,0.4-1.4,0.7-2,1c-0.6,0.3-1.1,0.5-1.7,0.7c-0.4,0.2-0.9,0.4-1.4,0.5c-0.3,0.1-0.6,0.2-0.9,0.3
								c-0.4,0.1-0.8,0.2-1.1,0.3c-0.4,0.2-0.9,0.3-1.3,0.4c-3.1,0.8-6.4,1.2-9.5,1.2c-1.7,0-3.4-0.1-5.1-0.3c0,0-0.1,0-0.2,0
								c-0.9-0.1-1.7-0.3-2.6-0.5c-2.5-0.5-4.9-1.2-7.2-2.2c-0.4-0.2-0.7-0.3-1-0.5c-0.6-0.2-1.1-0.5-1.7-0.8
								c-0.8-0.4-1.5-0.8-2.3-1.3c-0.8-0.5-1.5-0.9-2.3-1.4c-1.4-1-2.8-2.1-4.1-3.3c-0.7-0.6-1.3-1.2-1.9-1.9
								c-0.6-0.6-1.2-1.3-1.7-2c-0.1-0.1-0.2-0.2-0.3-0.3c-0.4-0.5-0.8-1-1.2-1.6c-0.3-0.4-0.6-0.7-0.8-1.1
								c-0.3-0.4-0.6-0.8-0.8-1.2c-0.1-0.2-0.3-0.4-0.4-0.6c-0.4-0.6-0.8-1.3-1.1-1.9c0,0-0.1-0.1-0.1-0.2l-0.6-1.1l-9.4-18
								l-32.7-62.8C-22.2,71.6-14.7,47.9,4.5,37.8z"/>
						</g>
					</g>
					<path class="st40" d="M-5.5,189.2c-5.8,3-12,4.5-18.1,4.5c-14.2,0-27.8-7.7-34.8-21.1l-51.7-99.1L-74,11.7
						c6-10.2,6.8-22.1,3.3-32.5l81.9,157C21.2,155.5,13.7,179.2-5.5,189.2z"/>
				</g>
			</g>
			<g>
				<g>
					<path class="st40" d="M1370.9,172.2l32.8,62.9l-58.6,101.4c-7.3,12.5-20.4,19.4-33.9,19.4c-6.7,0-13.6-1.7-19.8-5.4
						c-18.7-10.9-25-35-14-53.7l94.4-162.7c0-0.1,0.1-0.1,0.1-0.2C1365.3,145.3,1364.4,159.7,1370.9,172.2z"/>
					<g>
						<g>
							<path class="st40" d="M1466.6,270.8c-4.4,2.3-8.9,3.6-13.5,4.2c-0.8,0.1-1.5,0.1-2.3,0.2c-0.7,0-1.5,0.1-2.2,0.1
								c-0.2,0-0.3,0-0.5,0c-0.8,0-1.5,0-2.3-0.1c-0.8-0.1-1.6-0.1-2.3-0.2c-1.7-0.2-3.4-0.5-5-1c-0.9-0.3-1.9-0.6-2.8-0.9
								c-9.2-3.1-17.2-9.6-22.1-18.9l-9.9-19l-32.8-62.9c-6.5-12.5-5.6-26.9,1.1-38.2c0.5-0.8,0.9-1.5,1.4-2.3
								c1-1.4,2.1-2.8,3.3-4.1c0.6-0.7,1.2-1.3,1.9-1.9c0.6-0.6,1.3-1.2,2-1.7c0.1-0.1,0.2-0.2,0.3-0.2c0.5-0.5,1-0.9,1.6-1.2
								c0.4-0.3,0.7-0.6,1.1-0.8c0.4-0.3,0.8-0.6,1.2-0.8c0.2-0.1,0.4-0.2,0.6-0.4c0.6-0.4,1.3-0.8,1.9-1.1c0,0,0.1-0.1,0.2-0.1
								c0.1,0,0.1,0,0.2-0.1c0.7-0.4,1.4-0.7,2-1c0.6-0.3,1.1-0.5,1.7-0.7c0.4-0.2,0.9-0.4,1.4-0.5c0.3-0.1,0.6-0.2,0.9-0.3
								c0.4-0.1,0.8-0.2,1.1-0.3c0.4-0.2,0.9-0.3,1.3-0.4c3.1-0.8,6.4-1.2,9.5-1.2c1.7,0,3.4,0.1,5.1,0.3c0,0,0.1,0,0.2,0
								c0.9,0.1,1.7,0.3,2.6,0.5c2.5,0.5,4.9,1.2,7.2,2.2c0.4,0.2,0.7,0.3,1,0.5c0.6,0.2,1.1,0.5,1.7,0.8c0.8,0.4,1.5,0.8,2.3,1.3
								c0.8,0.5,1.5,0.9,2.3,1.4c1.4,1,2.8,2.1,4.1,3.3c0.7,0.6,1.3,1.2,1.9,1.9c0.6,0.6,1.2,1.3,1.7,2c0.1,0.1,0.2,0.2,0.3,0.3
								c0.4,0.5,0.8,1,1.2,1.6c0.3,0.4,0.6,0.7,0.8,1.1c0.3,0.4,0.6,0.8,0.8,1.2c0.1,0.2,0.3,0.4,0.4,0.6c0.4,0.6,0.8,1.3,1.1,1.9
								c0,0,0.1,0.1,0.1,0.2l0.6,1.1l9.4,18l32.7,62.8C1493.3,237,1485.8,260.7,1466.6,270.8z"/>
						</g>
					</g>
					<path class="st40" d="M1529.1,173.9l-36.2,61.7l-33-63.4c-5.5-10.6-5.7-22.6-1.6-32.8c0,0,0,0,0,0l3-5.2
						c6.9-11.7,18.8-18.5,31.4-19.3c0.7,0,1.5-0.1,2.2-0.1c14.1,0.1,27.6,7.8,34.6,21.1l2.8,5.5l0,0
						C1535.9,151.8,1535.1,163.6,1529.1,173.9z"/>
				</g>
				<g>
					<g>
						<g>
							<path class="st40" d="M1250.2,200c4.4-2.3,8.9-3.6,13.5-4.2c0.8-0.1,1.5-0.1,2.3-0.2c0.7,0,1.5-0.1,2.2-0.1
								c0.2,0,0.3,0,0.5,0c0.8,0,1.5,0,2.3,0.1c0.8,0.1,1.6,0.1,2.3,0.2c1.7,0.2,3.4,0.5,5,1c0.9,0.3,1.9,0.6,2.8,0.9
								c9.2,3.1,17.2,9.6,22.1,18.9l9.9,19l32.8,62.9c6.5,12.5,5.6,26.9-1.1,38.2c-0.5,0.8-0.9,1.5-1.4,2.3c-1,1.4-2.1,2.8-3.3,4.1
								c-0.6,0.7-1.2,1.3-1.9,1.9c-0.6,0.6-1.3,1.2-2,1.7c-0.1,0.1-0.2,0.2-0.3,0.2c-0.5,0.5-1,0.9-1.6,1.2
								c-0.4,0.3-0.7,0.6-1.1,0.8c-0.4,0.3-0.8,0.6-1.2,0.8c-0.2,0.1-0.4,0.2-0.6,0.4c-0.6,0.4-1.3,0.8-1.9,1.1c0,0-0.1,0.1-0.2,0.1
								c-0.1,0-0.1,0-0.2,0.1c-0.7,0.4-1.4,0.7-2,1c-0.6,0.3-1.1,0.5-1.7,0.7c-0.4,0.2-0.9,0.4-1.4,0.5c-0.3,0.1-0.6,0.2-0.9,0.3
								c-0.4,0.1-0.8,0.2-1.1,0.3c-0.4,0.2-0.9,0.3-1.3,0.4c-3.1,0.8-6.4,1.2-9.5,1.2c-1.7,0-3.4-0.1-5.1-0.3c0,0-0.1,0-0.2,0
								c-0.9-0.1-1.7-0.3-2.6-0.5c-2.5-0.5-4.9-1.2-7.2-2.2c-0.4-0.2-0.7-0.3-1-0.5c-0.6-0.2-1.1-0.5-1.7-0.8
								c-0.8-0.4-1.5-0.8-2.3-1.3c-0.8-0.5-1.5-0.9-2.3-1.4c-1.4-1-2.8-2.1-4.1-3.3c-0.7-0.6-1.3-1.2-1.9-1.9
								c-0.6-0.6-1.2-1.3-1.7-2c-0.1-0.1-0.2-0.2-0.3-0.3c-0.4-0.5-0.8-1-1.2-1.6c-0.3-0.4-0.6-0.7-0.8-1.1
								c-0.3-0.4-0.6-0.8-0.8-1.2c-0.1-0.2-0.3-0.4-0.4-0.6c-0.4-0.6-0.8-1.3-1.1-1.9c0,0-0.1-0.1-0.1-0.2l-0.6-1.1l-9.4-18
								l-32.7-62.8C1223.5,233.7,1231,210,1250.2,200z"/>
						</g>
					</g>
					<path class="st40" d="M1240.2,351.4c-5.8,3-12,4.5-18.1,4.5c-14.2,0-27.8-7.7-34.8-21.1l-51.7-99.1l36.2-61.7
						c6-10.2,6.8-22.1,3.3-32.5l81.9,157C1266.8,317.6,1259.4,341.3,1240.2,351.4z"/>
					<path class="st40" d="M1013.5,172.2l32.8,62.9l-58.6,101.4c-7.3,12.5-20.4,19.4-33.9,19.4c-6.7,0-13.6-1.7-19.8-5.4
						c-18.7-10.9-25-35-14-53.7l94.4-162.7c0-0.1,0.1-0.1,0.1-0.2C1007.8,145.3,1006.9,159.7,1013.5,172.2z"/>
					<g>
						<g>
							<path class="st40" d="M1109.2,270.8c-4.4,2.3-8.9,3.6-13.5,4.2c-0.8,0.1-1.5,0.1-2.3,0.2c-0.7,0-1.5,0.1-2.2,0.1
								c-0.2,0-0.3,0-0.5,0c-0.8,0-1.5,0-2.3-0.1c-0.8-0.1-1.6-0.1-2.3-0.2c-1.7-0.2-3.4-0.5-5-1c-0.9-0.3-1.9-0.6-2.8-0.9
								c-9.2-3.1-17.2-9.6-22.1-18.9l-9.9-19l-32.8-62.9c-6.5-12.5-5.6-26.9,1.1-38.2c0.5-0.8,0.9-1.5,1.4-2.3
								c1-1.4,2.1-2.8,3.3-4.1c0.6-0.7,1.2-1.3,1.9-1.9c0.6-0.6,1.3-1.2,2-1.7c0.1-0.1,0.2-0.2,0.3-0.2c0.5-0.5,1-0.9,1.6-1.2
								c0.4-0.3,0.7-0.6,1.1-0.8c0.4-0.3,0.8-0.6,1.2-0.8c0.2-0.1,0.4-0.2,0.6-0.4c0.6-0.4,1.3-0.8,1.9-1.1c0,0,0.1-0.1,0.2-0.1
								c0.1,0,0.1,0,0.2-0.1c0.7-0.4,1.4-0.7,2-1c0.6-0.3,1.1-0.5,1.7-0.7c0.4-0.2,0.9-0.4,1.4-0.5c0.3-0.1,0.6-0.2,0.9-0.3
								c0.4-0.1,0.8-0.2,1.1-0.3c0.4-0.2,0.9-0.3,1.3-0.4c3.1-0.8,6.4-1.2,9.5-1.2c1.7,0,3.4,0.1,5.1,0.3c0,0,0.1,0,0.2,0
								c0.9,0.1,1.7,0.3,2.6,0.5c2.5,0.5,4.9,1.2,7.2,2.2c0.4,0.2,0.7,0.3,1,0.5c0.6,0.2,1.1,0.5,1.7,0.8c0.8,0.4,1.5,0.8,2.3,1.3
								c0.8,0.5,1.5,0.9,2.3,1.4c1.4,1,2.8,2.1,4.1,3.3c0.7,0.6,1.3,1.2,1.9,1.9c0.6,0.6,1.2,1.3,1.7,2c0.1,0.1,0.2,0.2,0.3,0.3
								c0.4,0.5,0.8,1,1.2,1.6c0.3,0.4,0.6,0.7,0.8,1.1c0.3,0.4,0.6,0.8,0.8,1.2c0.1,0.2,0.3,0.4,0.4,0.6c0.4,0.6,0.8,1.3,1.1,1.9
								c0,0,0.1,0.1,0.1,0.2l0.6,1.1l9.4,18l32.7,62.8C1135.9,237,1128.4,260.7,1109.2,270.8z"/>
						</g>
					</g>
					<path class="st40" d="M1171.7,173.9l-36.2,61.7l-33-63.4c-5.5-10.6-5.7-22.6-1.6-32.8c0,0,0,0,0,0l3-5.2
						c6.9-11.7,18.8-18.5,31.4-19.3c0.7,0,1.5-0.1,2.2-0.1c14.1,0.1,27.6,7.8,34.6,21.1l2.8,5.5l0,0
						C1178.5,151.8,1177.7,163.6,1171.7,173.9z"/>
				</g>
				<g>
					<g>
						<g>
							<path class="st40" d="M892.9,200c4.4-2.3,8.9-3.6,13.5-4.2c0.8-0.1,1.5-0.1,2.3-0.2c0.7,0,1.5-0.1,2.2-0.1c0.2,0,0.3,0,0.5,0
								c0.8,0,1.5,0,2.3,0.1c0.8,0.1,1.6,0.1,2.3,0.2c1.7,0.2,3.4,0.5,5,1c0.9,0.3,1.9,0.6,2.8,0.9c9.2,3.1,17.2,9.6,22.1,18.9
								l9.9,19l32.8,62.9c6.5,12.5,5.6,26.9-1.1,38.2c-0.5,0.8-0.9,1.5-1.4,2.3c-1,1.4-2.1,2.8-3.3,4.1c-0.6,0.7-1.2,1.3-1.9,1.9
								c-0.6,0.6-1.3,1.2-2,1.7c-0.1,0.1-0.2,0.2-0.3,0.2c-0.5,0.5-1,0.9-1.6,1.2c-0.4,0.3-0.7,0.6-1.1,0.8
								c-0.4,0.3-0.8,0.6-1.2,0.8c-0.2,0.1-0.4,0.2-0.6,0.4c-0.6,0.4-1.3,0.8-1.9,1.1c0,0-0.1,0.1-0.2,0.1c-0.1,0-0.1,0-0.2,0.1
								c-0.7,0.4-1.4,0.7-2,1c-0.6,0.3-1.1,0.5-1.7,0.7c-0.4,0.2-0.9,0.4-1.4,0.5c-0.3,0.1-0.6,0.2-0.9,0.3
								c-0.4,0.1-0.8,0.2-1.1,0.3c-0.4,0.2-0.9,0.3-1.3,0.4c-3.1,0.8-6.4,1.2-9.5,1.2c-1.7,0-3.4-0.1-5.1-0.3c0,0-0.1,0-0.2,0
								c-0.9-0.1-1.7-0.3-2.6-0.5c-2.5-0.5-4.9-1.2-7.2-2.2c-0.4-0.2-0.7-0.3-1-0.5c-0.6-0.2-1.1-0.5-1.7-0.8
								c-0.8-0.4-1.5-0.8-2.3-1.3c-0.8-0.5-1.5-0.9-2.3-1.4c-1.4-1-2.8-2.1-4.1-3.3c-0.7-0.6-1.3-1.2-1.9-1.9
								c-0.6-0.6-1.2-1.3-1.7-2c-0.1-0.1-0.2-0.2-0.3-0.3c-0.4-0.5-0.8-1-1.2-1.6c-0.3-0.4-0.6-0.7-0.8-1.1
								c-0.3-0.4-0.6-0.8-0.8-1.2c-0.1-0.2-0.3-0.4-0.4-0.6c-0.4-0.6-0.8-1.3-1.1-1.9c0,0-0.1-0.1-0.1-0.2l-0.6-1.1l-9.4-18
								l-32.7-62.8C866.2,233.7,873.6,210,892.9,200z"/>
						</g>
					</g>
					<path class="st40" d="M882.9,351.4c-5.8,3-12,4.5-18.1,4.5c-14.2,0-27.8-7.7-34.8-21.1l-51.7-99.1l36.2-61.7
						c6-10.2,6.8-22.1,3.3-32.5l81.9,157C909.5,317.6,902.1,341.3,882.9,351.4z"/>
					<path class="st40" d="M656.2,172.2l32.8,62.9l-58.6,101.4C623.1,349,610,356,596.5,356c-6.7,0-13.6-1.7-19.8-5.4
						c-18.7-10.9-25-35-14-53.7l94.4-162.7c0-0.1,0.1-0.1,0.1-0.2C650.5,145.3,649.6,159.7,656.2,172.2z"/>
					<g>
						<g>
							<path class="st40" d="M751.9,270.8c-4.4,2.3-8.9,3.6-13.5,4.2c-0.8,0.1-1.5,0.1-2.3,0.2c-0.7,0-1.5,0.1-2.2,0.1
								c-0.2,0-0.3,0-0.5,0c-0.8,0-1.5,0-2.3-0.1c-0.8-0.1-1.6-0.1-2.3-0.2c-1.7-0.2-3.4-0.5-5-1c-0.9-0.3-1.9-0.6-2.8-0.9
								c-9.2-3.1-17.2-9.6-22.1-18.9l-9.9-19l-32.8-62.9c-6.5-12.5-5.6-26.9,1.1-38.2c0.5-0.8,0.9-1.5,1.4-2.3
								c1-1.4,2.1-2.8,3.3-4.1c0.6-0.7,1.2-1.3,1.9-1.9c0.6-0.6,1.3-1.2,2-1.7c0.1-0.1,0.2-0.2,0.3-0.2c0.5-0.5,1-0.9,1.6-1.2
								c0.4-0.3,0.7-0.6,1.1-0.8c0.4-0.3,0.8-0.6,1.2-0.8c0.2-0.1,0.4-0.2,0.6-0.4c0.6-0.4,1.3-0.8,1.9-1.1c0,0,0.1-0.1,0.2-0.1
								c0.1,0,0.1,0,0.2-0.1c0.7-0.4,1.4-0.7,2-1c0.6-0.3,1.1-0.5,1.7-0.7c0.4-0.2,0.9-0.4,1.4-0.5c0.3-0.1,0.6-0.2,0.9-0.3
								c0.4-0.1,0.8-0.2,1.1-0.3c0.4-0.2,0.9-0.3,1.3-0.4c3.1-0.8,6.4-1.2,9.5-1.2c1.7,0,3.4,0.1,5.1,0.3c0,0,0.1,0,0.2,0
								c0.9,0.1,1.7,0.3,2.6,0.5c2.5,0.5,4.9,1.2,7.2,2.2c0.4,0.2,0.7,0.3,1,0.5c0.6,0.2,1.1,0.5,1.7,0.8c0.8,0.4,1.5,0.8,2.3,1.3
								c0.8,0.5,1.5,0.9,2.3,1.4c1.4,1,2.8,2.1,4.1,3.3c0.7,0.6,1.3,1.2,1.9,1.9c0.6,0.6,1.2,1.3,1.7,2c0.1,0.1,0.2,0.2,0.3,0.3
								c0.4,0.5,0.8,1,1.2,1.6c0.3,0.4,0.6,0.7,0.8,1.1c0.3,0.4,0.6,0.8,0.8,1.2c0.1,0.2,0.3,0.4,0.4,0.6c0.4,0.6,0.8,1.3,1.1,1.9
								c0,0,0.1,0.1,0.1,0.2l0.6,1.1l9.4,18l32.7,62.8C778.5,237,771.1,260.7,751.9,270.8z"/>
						</g>
					</g>
					<path class="st40" d="M814.4,173.9l-36.2,61.7l-33-63.4c-5.5-10.6-5.7-22.6-1.6-32.8c0,0,0,0,0,0l3-5.2
						c6.9-11.7,18.8-18.5,31.4-19.3c0.7,0,1.5-0.1,2.2-0.1c14.1,0.1,27.6,7.8,34.6,21.1l2.8,5.5l0,0
						C821.2,151.8,820.4,163.6,814.4,173.9z"/>
				</g>
				<g>
					<g>
						<g>
							<path class="st40" d="M535.3,200c4.4-2.3,8.9-3.6,13.5-4.2c0.8-0.1,1.5-0.1,2.3-0.2c0.7,0,1.5-0.1,2.2-0.1c0.2,0,0.3,0,0.5,0
								c0.8,0,1.5,0,2.3,0.1c0.8,0.1,1.6,0.1,2.3,0.2c1.7,0.2,3.4,0.5,5,1c0.9,0.3,1.9,0.6,2.8,0.9c9.2,3.1,17.2,9.6,22.1,18.9
								l9.9,19l32.8,62.9c6.5,12.5,5.6,26.9-1.1,38.2c-0.5,0.8-0.9,1.5-1.4,2.3c-1,1.4-2.1,2.8-3.3,4.1c-0.6,0.7-1.2,1.3-1.9,1.9
								c-0.6,0.6-1.3,1.2-2,1.7c-0.1,0.1-0.2,0.2-0.3,0.2c-0.5,0.5-1,0.9-1.6,1.2c-0.4,0.3-0.7,0.6-1.1,0.8
								c-0.4,0.3-0.8,0.6-1.2,0.8c-0.2,0.1-0.4,0.2-0.6,0.4c-0.6,0.4-1.3,0.8-1.9,1.1c0,0-0.1,0.1-0.2,0.1c-0.1,0-0.1,0-0.2,0.1
								c-0.7,0.4-1.4,0.7-2,1c-0.6,0.3-1.1,0.5-1.7,0.7c-0.4,0.2-0.9,0.4-1.4,0.5c-0.3,0.1-0.6,0.2-0.9,0.3
								c-0.4,0.1-0.8,0.2-1.1,0.3c-0.4,0.2-0.9,0.3-1.3,0.4c-3.1,0.8-6.4,1.2-9.5,1.2c-1.7,0-3.4-0.1-5.1-0.3c0,0-0.1,0-0.2,0
								c-0.9-0.1-1.7-0.3-2.6-0.5c-2.5-0.5-4.9-1.2-7.2-2.2c-0.4-0.2-0.7-0.3-1-0.5c-0.6-0.2-1.1-0.5-1.7-0.8
								c-0.8-0.4-1.5-0.8-2.3-1.3c-0.8-0.5-1.5-0.9-2.3-1.4c-1.4-1-2.8-2.1-4.1-3.3c-0.7-0.6-1.3-1.2-1.9-1.9
								c-0.6-0.6-1.2-1.3-1.7-2c-0.1-0.1-0.2-0.2-0.3-0.3c-0.4-0.5-0.8-1-1.2-1.6c-0.3-0.4-0.6-0.7-0.8-1.1
								c-0.3-0.4-0.6-0.8-0.8-1.2c-0.1-0.2-0.3-0.4-0.4-0.6c-0.4-0.6-0.8-1.3-1.1-1.9c0,0-0.1-0.1-0.1-0.2l-0.6-1.1l-9.4-18
								l-32.7-62.8C508.6,233.7,516.1,210,535.3,200z"/>
						</g>
					</g>
					<path class="st40" d="M525.3,351.4c-5.8,3-12,4.5-18.1,4.5c-14.2,0-27.8-7.7-34.8-21.1l-51.7-99.1l36.2-61.7
						c6-10.2,6.8-22.1,3.3-32.5l81.9,157C552,317.6,544.5,341.3,525.3,351.4z"/>
					<path class="st40" d="M298.6,172.2l32.8,62.9l-58.6,101.4c-7.3,12.5-20.4,19.4-33.9,19.4c-6.7,0-13.6-1.7-19.8-5.4
						c-18.7-10.9-25-35-14-53.7l94.4-162.7c0-0.1,0.1-0.1,0.1-0.2C293,145.3,292.1,159.7,298.6,172.2z"/>
					<g>
						<g>
							<path class="st40" d="M394.3,270.8c-4.4,2.3-8.9,3.6-13.5,4.2c-0.8,0.1-1.5,0.1-2.3,0.2c-0.7,0-1.5,0.1-2.2,0.1
								c-0.2,0-0.3,0-0.5,0c-0.8,0-1.5,0-2.3-0.1c-0.8-0.1-1.6-0.1-2.3-0.2c-1.7-0.2-3.4-0.5-5-1c-0.9-0.3-1.9-0.6-2.8-0.9
								c-9.2-3.1-17.2-9.6-22.1-18.9l-9.9-19l-32.8-62.9c-6.5-12.5-5.6-26.9,1.1-38.2c0.5-0.8,0.9-1.5,1.4-2.3
								c1-1.4,2.1-2.8,3.3-4.1c0.6-0.7,1.2-1.3,1.9-1.9c0.6-0.6,1.3-1.2,2-1.7c0.1-0.1,0.2-0.2,0.3-0.2c0.5-0.5,1-0.9,1.6-1.2
								c0.4-0.3,0.7-0.6,1.1-0.8c0.4-0.3,0.8-0.6,1.2-0.8c0.2-0.1,0.4-0.2,0.6-0.4c0.6-0.4,1.3-0.8,1.9-1.1c0,0,0.1-0.1,0.2-0.1
								c0.1,0,0.1,0,0.2-0.1c0.7-0.4,1.4-0.7,2-1c0.6-0.3,1.1-0.5,1.7-0.7c0.4-0.2,0.9-0.4,1.4-0.5c0.3-0.1,0.6-0.2,0.9-0.3
								c0.4-0.1,0.8-0.2,1.1-0.3c0.4-0.2,0.9-0.3,1.3-0.4c3.1-0.8,6.4-1.2,9.5-1.2c1.7,0,3.4,0.1,5.1,0.3c0,0,0.1,0,0.2,0
								c0.9,0.1,1.7,0.3,2.6,0.5c2.5,0.5,4.9,1.2,7.2,2.2c0.4,0.2,0.7,0.3,1,0.5c0.6,0.2,1.1,0.5,1.7,0.8c0.8,0.4,1.5,0.8,2.3,1.3
								c0.8,0.5,1.5,0.9,2.3,1.4c1.4,1,2.8,2.1,4.1,3.3c0.7,0.6,1.3,1.2,1.9,1.9c0.6,0.6,1.2,1.3,1.7,2c0.1,0.1,0.2,0.2,0.3,0.3
								c0.4,0.5,0.8,1,1.2,1.6c0.3,0.4,0.6,0.7,0.8,1.1c0.3,0.4,0.6,0.8,0.8,1.2c0.1,0.2,0.3,0.4,0.4,0.6c0.4,0.6,0.8,1.3,1.1,1.9
								c0,0,0.1,0.1,0.1,0.2l0.6,1.1l9.4,18l32.7,62.8C421,237,413.5,260.7,394.3,270.8z"/>
						</g>
					</g>
					<path class="st40" d="M456.8,173.9l-36.2,61.7l-33-63.4c-5.5-10.6-5.7-22.6-1.6-32.8c0,0,0,0,0,0l3-5.2
						c6.9-11.7,18.8-18.5,31.4-19.3c0.7,0,1.5-0.1,2.2-0.1c14.1,0.1,27.6,7.8,34.6,21.1l2.8,5.5l0,0
						C463.6,151.8,462.8,163.6,456.8,173.9z"/>
				</g>
				<g>
					<g>
						<g>
							<path class="st40" d="M178,200c4.4-2.3,8.9-3.6,13.5-4.2c0.8-0.1,1.5-0.1,2.3-0.2c0.7,0,1.5-0.1,2.2-0.1c0.2,0,0.3,0,0.5,0
								c0.8,0,1.5,0,2.3,0.1c0.8,0.1,1.6,0.1,2.3,0.2c1.7,0.2,3.4,0.5,5,1c0.9,0.3,1.9,0.6,2.8,0.9c9.2,3.1,17.2,9.6,22.1,18.9
								l9.9,19l32.8,62.9c6.5,12.5,5.6,26.9-1.1,38.2c-0.5,0.8-0.9,1.5-1.4,2.3c-1,1.4-2.1,2.8-3.3,4.1c-0.6,0.7-1.2,1.3-1.9,1.9
								c-0.6,0.6-1.3,1.2-2,1.7c-0.1,0.1-0.2,0.2-0.3,0.2c-0.5,0.5-1,0.9-1.6,1.2c-0.4,0.3-0.7,0.6-1.1,0.8
								c-0.4,0.3-0.8,0.6-1.2,0.8c-0.2,0.1-0.4,0.2-0.6,0.4c-0.6,0.4-1.3,0.8-1.9,1.1c0,0-0.1,0.1-0.2,0.1c-0.1,0-0.1,0-0.2,0.1
								c-0.7,0.4-1.4,0.7-2,1c-0.6,0.3-1.1,0.5-1.7,0.7c-0.4,0.2-0.9,0.4-1.4,0.5c-0.3,0.1-0.6,0.2-0.9,0.3
								c-0.4,0.1-0.8,0.2-1.1,0.3c-0.4,0.2-0.9,0.3-1.3,0.4c-3.1,0.8-6.4,1.2-9.5,1.2c-1.7,0-3.4-0.1-5.1-0.3c0,0-0.1,0-0.2,0
								c-0.9-0.1-1.7-0.3-2.6-0.5c-2.5-0.5-4.9-1.2-7.2-2.2c-0.4-0.2-0.7-0.3-1-0.5c-0.6-0.2-1.1-0.5-1.7-0.8
								c-0.8-0.4-1.5-0.8-2.3-1.3c-0.8-0.5-1.5-0.9-2.3-1.4c-1.4-1-2.8-2.1-4.1-3.3c-0.7-0.6-1.3-1.2-1.9-1.9
								c-0.6-0.6-1.2-1.3-1.7-2c-0.1-0.1-0.2-0.2-0.3-0.3c-0.4-0.5-0.8-1-1.2-1.6c-0.3-0.4-0.6-0.7-0.8-1.1
								c-0.3-0.4-0.6-0.8-0.8-1.2c-0.1-0.2-0.3-0.4-0.4-0.6c-0.4-0.6-0.8-1.3-1.1-1.9c0,0-0.1-0.1-0.1-0.2l-0.6-1.1l-9.4-18
								l-32.7-62.8C151.3,233.7,158.8,210,178,200z"/>
						</g>
					</g>
					<path class="st40" d="M168,351.4c-5.8,3-12,4.5-18.1,4.5c-14.2,0-27.8-7.7-34.8-21.1l-51.7-99.1l36.2-61.7
						c6-10.2,6.8-22.1,3.3-32.5l81.9,157C194.7,317.6,187.2,341.3,168,351.4z"/>
					<g>
						<g>
							<path class="st40" d="M37,270.8c-4.4,2.3-8.9,3.6-13.5,4.2c-0.8,0.1-1.5,0.1-2.3,0.2c-0.7,0-1.5,0.1-2.2,0.1
								c-0.2,0-0.3,0-0.5,0c-0.8,0-1.5,0-2.3-0.1c-0.8-0.1-1.6-0.1-2.3-0.2c-1.7-0.2-3.4-0.5-5-1C8,273.7,7,273.4,6.1,273
								c-9.2-3.1-17.2-9.6-22.1-18.9l-9.9-19l-32.8-62.9c-6.5-12.5-5.6-26.9,1.1-38.2c0.5-0.8,0.9-1.5,1.4-2.3
								c1-1.4,2.1-2.8,3.3-4.1c0.6-0.7,1.2-1.3,1.9-1.9c0.6-0.6,1.3-1.2,2-1.7c0.1-0.1,0.2-0.2,0.3-0.2c0.5-0.5,1-0.9,1.6-1.2
								c0.4-0.3,0.7-0.6,1.1-0.8c0.4-0.3,0.8-0.6,1.2-0.8c0.2-0.1,0.4-0.2,0.6-0.4c0.6-0.4,1.3-0.8,1.9-1.1c0,0,0.1-0.1,0.2-0.1
								c0.1,0,0.1,0,0.2-0.1c0.7-0.4,1.4-0.7,2-1c0.6-0.3,1.1-0.5,1.7-0.7c0.4-0.2,0.9-0.4,1.4-0.5c0.3-0.1,0.6-0.2,0.9-0.3
								c0.4-0.1,0.8-0.2,1.1-0.3c0.4-0.2,0.9-0.3,1.3-0.4c3.1-0.8,6.4-1.2,9.5-1.2c1.7,0,3.4,0.1,5.1,0.3c0,0,0.1,0,0.2,0
								c0.9,0.1,1.7,0.3,2.6,0.5c2.5,0.5,4.9,1.2,7.2,2.2c0.4,0.2,0.7,0.3,1,0.5c0.6,0.2,1.1,0.5,1.7,0.8c0.8,0.4,1.5,0.8,2.3,1.3
								c0.8,0.5,1.5,0.9,2.3,1.4c1.4,1,2.8,2.1,4.1,3.3c0.7,0.6,1.3,1.2,1.9,1.9c0.6,0.6,1.2,1.3,1.7,2c0.1,0.1,0.2,0.2,0.3,0.3
								c0.4,0.5,0.8,1,1.2,1.6c0.3,0.4,0.6,0.7,0.8,1.1c0.3,0.4,0.6,0.8,0.8,1.2c0.1,0.2,0.3,0.4,0.4,0.6c0.4,0.6,0.8,1.3,1.1,1.9
								c0,0,0.1,0.1,0.1,0.2l0.6,1.1l9.4,18l32.7,62.8C63.7,237,56.2,260.7,37,270.8z"/>
						</g>
					</g>
					<path class="st40" d="M99.5,173.9l-36.2,61.7l-33-63.4c-5.5-10.6-5.7-22.6-1.6-32.8c0,0,0,0,0,0l3-5.2
						c6.9-11.7,18.8-18.5,31.4-19.3c0.7,0,1.5-0.1,2.2-0.1c14.1,0.1,27.6,7.8,34.6,21.1l2.8,5.5l0,0
						C106.3,151.8,105.5,163.6,99.5,173.9z"/>
				</g>
			</g>
			<g>
				<g>
					<g>
						<g>
							<path class="st40" d="M1423.7,362.3c4.4-2.3,8.9-3.6,13.5-4.2c0.8-0.1,1.5-0.1,2.3-0.2c0.7,0,1.5-0.1,2.2-0.1
								c0.2,0,0.3,0,0.5,0c0.8,0,1.5,0,2.3,0.1c0.8,0.1,1.6,0.1,2.3,0.2c1.7,0.2,3.4,0.5,5,1c0.9,0.3,1.9,0.6,2.8,0.9
								c9.2,3.1,17.2,9.6,22.1,18.9l9.9,19l32.8,62.9c6.5,12.5,5.6,26.9-1.1,38.2c-0.5,0.8-0.9,1.5-1.4,2.3c-1,1.4-2.1,2.8-3.3,4.1
								c-0.6,0.7-1.2,1.3-1.9,1.9c-0.6,0.6-1.3,1.2-2,1.7c-0.1,0.1-0.2,0.2-0.3,0.2c-0.5,0.5-1,0.9-1.6,1.2
								c-0.4,0.3-0.7,0.6-1.1,0.8c-0.4,0.3-0.8,0.6-1.2,0.8c-0.2,0.1-0.4,0.2-0.6,0.4c-0.6,0.4-1.3,0.8-1.9,1.1c0,0-0.1,0.1-0.2,0.1
								c-0.1,0-0.1,0-0.2,0.1c-0.7,0.4-1.4,0.7-2,1c-0.6,0.3-1.1,0.5-1.7,0.7c-0.4,0.2-0.9,0.4-1.4,0.5c-0.3,0.1-0.6,0.2-0.9,0.3
								c-0.4,0.1-0.8,0.2-1.1,0.3c-0.4,0.2-0.9,0.3-1.3,0.4c-3.1,0.8-6.4,1.2-9.5,1.2c-1.7,0-3.4-0.1-5.1-0.3c0,0-0.1,0-0.2,0
								c-0.9-0.1-1.7-0.3-2.6-0.5c-2.5-0.5-4.9-1.2-7.2-2.2c-0.4-0.2-0.7-0.3-1-0.5c-0.6-0.2-1.1-0.5-1.7-0.8
								c-0.8-0.4-1.5-0.8-2.3-1.3c-0.8-0.5-1.5-0.9-2.3-1.4c-1.4-1-2.8-2.1-4.1-3.3c-0.7-0.6-1.3-1.2-1.9-1.9
								c-0.6-0.6-1.2-1.3-1.7-2c-0.1-0.1-0.2-0.2-0.3-0.3c-0.4-0.5-0.8-1-1.2-1.6c-0.3-0.4-0.6-0.7-0.8-1.1
								c-0.3-0.4-0.6-0.8-0.8-1.2c-0.1-0.2-0.3-0.4-0.4-0.6c-0.4-0.6-0.8-1.3-1.1-1.9c0,0-0.1-0.1-0.1-0.2l-0.6-1.1l-9.4-18
								l-32.7-62.8C1397,396,1404.4,372.3,1423.7,362.3z"/>
						</g>
					</g>
					<path class="st40" d="M1413.7,513.7c-5.8,3-12,4.5-18.1,4.5c-14.2,0-27.8-7.7-34.8-21.1l-51.7-99.1l36.2-61.7
						c6-10.2,6.8-22.1,3.3-32.5l81.9,157C1440.3,479.9,1432.9,503.6,1413.7,513.7z"/>
					<path class="st40" d="M1187,334.5l32.8,62.9l-58.6,101.4c-7.3,12.5-20.4,19.4-33.9,19.4c-6.7,0-13.6-1.7-19.8-5.4
						c-18.7-10.9-25-35-14-53.7l94.4-162.7c0-0.1,0.1-0.1,0.1-0.2C1181.3,307.6,1180.4,322,1187,334.5z"/>
					<g>
						<g>
							<path class="st40" d="M1282.7,433.1c-4.4,2.3-8.9,3.6-13.5,4.2c-0.8,0.1-1.5,0.1-2.3,0.2c-0.7,0-1.5,0.1-2.2,0.1
								c-0.2,0-0.3,0-0.5,0c-0.8,0-1.5,0-2.3-0.1c-0.8-0.1-1.6-0.1-2.3-0.2c-1.7-0.2-3.4-0.5-5-1c-0.9-0.3-1.9-0.6-2.8-0.9
								c-9.2-3.1-17.2-9.6-22.1-18.9l-9.9-19l-32.8-62.9c-6.5-12.5-5.6-26.9,1.1-38.2c0.5-0.8,0.9-1.5,1.4-2.3
								c1-1.4,2.1-2.8,3.3-4.1c0.6-0.7,1.2-1.3,1.9-1.9c0.6-0.6,1.3-1.2,2-1.7c0.1-0.1,0.2-0.2,0.3-0.2c0.5-0.5,1-0.9,1.6-1.2
								c0.4-0.3,0.7-0.6,1.1-0.8c0.4-0.3,0.8-0.6,1.2-0.8c0.2-0.1,0.4-0.2,0.6-0.4c0.6-0.4,1.3-0.8,1.9-1.1c0,0,0.1-0.1,0.2-0.1
								c0.1,0,0.1,0,0.2-0.1c0.7-0.4,1.4-0.7,2-1c0.6-0.3,1.1-0.5,1.7-0.7c0.4-0.2,0.9-0.4,1.4-0.5c0.3-0.1,0.6-0.2,0.9-0.3
								c0.4-0.1,0.8-0.2,1.1-0.3c0.4-0.2,0.9-0.3,1.3-0.4c3.1-0.8,6.4-1.2,9.5-1.2c1.7,0,3.4,0.1,5.1,0.3c0,0,0.1,0,0.2,0
								c0.9,0.1,1.7,0.3,2.6,0.5c2.5,0.5,4.9,1.2,7.2,2.2c0.4,0.2,0.7,0.3,1,0.5c0.6,0.2,1.1,0.5,1.7,0.8c0.8,0.4,1.5,0.8,2.3,1.3
								c0.8,0.5,1.5,0.9,2.3,1.4c1.4,1,2.8,2.1,4.1,3.3c0.7,0.6,1.3,1.2,1.9,1.9c0.6,0.6,1.2,1.3,1.7,2c0.1,0.1,0.2,0.2,0.3,0.3
								c0.4,0.5,0.8,1,1.2,1.6c0.3,0.4,0.6,0.7,0.8,1.1c0.3,0.4,0.6,0.8,0.8,1.2c0.1,0.2,0.3,0.4,0.4,0.6c0.4,0.6,0.8,1.3,1.1,1.9
								c0,0,0.1,0.1,0.1,0.2l0.6,1.1l9.4,18l32.7,62.8C1309.3,399.3,1301.9,423.1,1282.7,433.1z"/>
						</g>
					</g>
					<path class="st40" d="M1345.2,336.2l-36.2,61.7l-33-63.4c-5.5-10.6-5.7-22.6-1.6-32.8c0,0,0,0,0,0l3-5.2
						c6.9-11.7,18.8-18.5,31.4-19.3c0.7,0,1.5-0.1,2.2-0.1c14.1,0.1,27.6,7.8,34.6,21.1l2.8,5.5l0,0
						C1352,314.1,1351.2,325.9,1345.2,336.2z"/>
				</g>
				<g>
					<g>
						<g>
							<path class="st40" d="M1066.2,362.3c4.4-2.3,8.9-3.6,13.5-4.2c0.8-0.1,1.5-0.1,2.3-0.2c0.7,0,1.5-0.1,2.2-0.1
								c0.2,0,0.3,0,0.5,0c0.8,0,1.5,0,2.3,0.1c0.8,0.1,1.6,0.1,2.3,0.2c1.7,0.2,3.4,0.5,5,1c0.9,0.3,1.9,0.6,2.8,0.9
								c9.2,3.1,17.2,9.6,22.1,18.9l9.9,19l32.8,62.9c6.5,12.5,5.6,26.9-1.1,38.2c-0.5,0.8-0.9,1.5-1.4,2.3c-1,1.4-2.1,2.8-3.3,4.1
								c-0.6,0.7-1.2,1.3-1.9,1.9c-0.6,0.6-1.3,1.2-2,1.7c-0.1,0.1-0.2,0.2-0.3,0.2c-0.5,0.5-1,0.9-1.6,1.2
								c-0.4,0.3-0.7,0.6-1.1,0.8c-0.4,0.3-0.8,0.6-1.2,0.8c-0.2,0.1-0.4,0.2-0.6,0.4c-0.6,0.4-1.3,0.8-1.9,1.1c0,0-0.1,0.1-0.2,0.1
								c-0.1,0-0.1,0-0.2,0.1c-0.7,0.4-1.4,0.7-2,1c-0.6,0.3-1.1,0.5-1.7,0.7c-0.4,0.2-0.9,0.4-1.4,0.5c-0.3,0.1-0.6,0.2-0.9,0.3
								c-0.4,0.1-0.8,0.2-1.1,0.3c-0.4,0.2-0.9,0.3-1.3,0.4c-3.1,0.8-6.4,1.2-9.5,1.2c-1.7,0-3.4-0.1-5.1-0.3c0,0-0.1,0-0.2,0
								c-0.9-0.1-1.7-0.3-2.6-0.5c-2.5-0.5-4.9-1.2-7.2-2.2c-0.4-0.2-0.7-0.3-1-0.5c-0.6-0.2-1.1-0.5-1.7-0.8
								c-0.8-0.4-1.5-0.8-2.3-1.3c-0.8-0.5-1.5-0.9-2.3-1.4c-1.4-1-2.8-2.1-4.1-3.3c-0.7-0.6-1.3-1.2-1.9-1.9
								c-0.6-0.6-1.2-1.3-1.7-2c-0.1-0.1-0.2-0.2-0.3-0.3c-0.4-0.5-0.8-1-1.2-1.6c-0.3-0.4-0.6-0.7-0.8-1.1
								c-0.3-0.4-0.6-0.8-0.8-1.2c-0.1-0.2-0.3-0.4-0.4-0.6c-0.4-0.6-0.8-1.3-1.1-1.9c0,0-0.1-0.1-0.1-0.2l-0.6-1.1l-9.4-18
								l-32.7-62.8C1039.6,396,1047,372.3,1066.2,362.3z"/>
						</g>
					</g>
					<path class="st40" d="M1056.2,513.7c-5.8,3-12,4.5-18.1,4.5c-14.2,0-27.8-7.7-34.8-21.1l-51.7-99.1l36.2-61.7
						c6-10.2,6.8-22.1,3.3-32.5l81.9,157C1082.9,479.9,1075.4,503.6,1056.2,513.7z"/>
					<path class="st40" d="M829.5,334.5l32.8,62.9l-58.6,101.4c-7.3,12.5-20.4,19.4-33.9,19.4c-6.7,0-13.6-1.7-19.8-5.4
						c-18.7-10.9-25-35-14-53.7l94.4-162.7c0-0.1,0.1-0.1,0.1-0.2C823.9,307.6,823,322,829.5,334.5z"/>
					<g>
						<g>
							<path class="st40" d="M925.2,433.1c-4.4,2.3-8.9,3.6-13.5,4.2c-0.8,0.1-1.5,0.1-2.3,0.2c-0.7,0-1.5,0.1-2.2,0.1
								c-0.2,0-0.3,0-0.5,0c-0.8,0-1.5,0-2.3-0.1c-0.8-0.1-1.6-0.1-2.3-0.2c-1.7-0.2-3.4-0.5-5-1c-0.9-0.3-1.9-0.6-2.8-0.9
								c-9.2-3.1-17.2-9.6-22.1-18.9l-9.9-19l-32.8-62.9c-6.5-12.5-5.6-26.9,1.1-38.2c0.5-0.8,0.9-1.5,1.4-2.3
								c1-1.4,2.1-2.8,3.3-4.1c0.6-0.7,1.2-1.3,1.9-1.9c0.6-0.6,1.3-1.2,2-1.7c0.1-0.1,0.2-0.2,0.3-0.2c0.5-0.5,1-0.9,1.6-1.2
								c0.4-0.3,0.7-0.6,1.1-0.8c0.4-0.3,0.8-0.6,1.2-0.8c0.2-0.1,0.4-0.2,0.6-0.4c0.6-0.4,1.3-0.8,1.9-1.1c0,0,0.1-0.1,0.2-0.1
								c0.1,0,0.1,0,0.2-0.1c0.7-0.4,1.4-0.7,2-1c0.6-0.3,1.1-0.5,1.7-0.7c0.4-0.2,0.9-0.4,1.4-0.5c0.3-0.1,0.6-0.2,0.9-0.3
								c0.4-0.1,0.8-0.2,1.1-0.3c0.4-0.2,0.9-0.3,1.3-0.4c3.1-0.8,6.4-1.2,9.5-1.2c1.7,0,3.4,0.1,5.1,0.3c0,0,0.1,0,0.2,0
								c0.9,0.1,1.7,0.3,2.6,0.5c2.5,0.5,4.9,1.2,7.2,2.2c0.4,0.2,0.7,0.3,1,0.5c0.6,0.2,1.1,0.5,1.7,0.8c0.8,0.4,1.5,0.8,2.3,1.3
								c0.8,0.5,1.5,0.9,2.3,1.4c1.4,1,2.8,2.1,4.1,3.3c0.7,0.6,1.3,1.2,1.9,1.9c0.6,0.6,1.2,1.3,1.7,2c0.1,0.1,0.2,0.2,0.3,0.3
								c0.4,0.5,0.8,1,1.2,1.6c0.3,0.4,0.6,0.7,0.8,1.1c0.3,0.4,0.6,0.8,0.8,1.2c0.1,0.2,0.3,0.4,0.4,0.6c0.4,0.6,0.8,1.3,1.1,1.9
								c0,0,0.1,0.1,0.1,0.2l0.6,1.1l9.4,18l32.7,62.8C951.9,399.3,944.5,423.1,925.2,433.1z"/>
						</g>
					</g>
					<path class="st40" d="M987.7,336.2l-36.2,61.7l-33-63.4c-5.5-10.6-5.7-22.6-1.6-32.8c0,0,0,0,0,0l3-5.2
						c6.9-11.7,18.8-18.5,31.4-19.3c0.7,0,1.5-0.1,2.2-0.1c14.1,0.1,27.6,7.8,34.6,21.1l2.8,5.5l0,0
						C994.6,314.1,993.7,325.9,987.7,336.2z"/>
				</g>
				<g>
					<g>
						<g>
							<path class="st40" d="M708.9,362.3c4.4-2.3,8.9-3.6,13.5-4.2c0.8-0.1,1.5-0.1,2.3-0.2c0.7,0,1.5-0.1,2.2-0.1
								c0.2,0,0.3,0,0.5,0c0.8,0,1.5,0,2.3,0.1c0.8,0.1,1.6,0.1,2.3,0.2c1.7,0.2,3.4,0.5,5,1c0.9,0.3,1.9,0.6,2.8,0.9
								c9.2,3.1,17.2,9.6,22.1,18.9l9.9,19l32.8,62.9c6.5,12.5,5.6,26.9-1.1,38.2c-0.5,0.8-0.9,1.5-1.4,2.3c-1,1.4-2.1,2.8-3.3,4.1
								c-0.6,0.7-1.2,1.3-1.9,1.9c-0.6,0.6-1.3,1.2-2,1.7c-0.1,0.1-0.2,0.2-0.3,0.2c-0.5,0.5-1,0.9-1.6,1.2
								c-0.4,0.3-0.7,0.6-1.1,0.8c-0.4,0.3-0.8,0.6-1.2,0.8c-0.2,0.1-0.4,0.2-0.6,0.4c-0.6,0.4-1.3,0.8-1.9,1.1c0,0-0.1,0.1-0.2,0.1
								c-0.1,0-0.1,0-0.2,0.1c-0.7,0.4-1.4,0.7-2,1c-0.6,0.3-1.1,0.5-1.7,0.7c-0.4,0.2-0.9,0.4-1.4,0.5c-0.3,0.1-0.6,0.2-0.9,0.3
								c-0.4,0.1-0.8,0.2-1.1,0.3c-0.4,0.2-0.9,0.3-1.3,0.4c-3.1,0.8-6.4,1.2-9.5,1.2c-1.7,0-3.4-0.1-5.1-0.3c0,0-0.1,0-0.2,0
								c-0.9-0.1-1.7-0.3-2.6-0.5c-2.5-0.5-4.9-1.2-7.2-2.2c-0.4-0.2-0.7-0.3-1-0.5c-0.6-0.2-1.1-0.5-1.7-0.8
								c-0.8-0.4-1.5-0.8-2.3-1.3c-0.8-0.5-1.5-0.9-2.3-1.4c-1.4-1-2.8-2.1-4.1-3.3c-0.7-0.6-1.3-1.2-1.9-1.9
								c-0.6-0.6-1.2-1.3-1.7-2c-0.1-0.1-0.2-0.2-0.3-0.3c-0.4-0.5-0.8-1-1.2-1.6c-0.3-0.4-0.6-0.7-0.8-1.1
								c-0.3-0.4-0.6-0.8-0.8-1.2c-0.1-0.2-0.3-0.4-0.4-0.6c-0.4-0.6-0.8-1.3-1.1-1.9c0,0-0.1-0.1-0.1-0.2l-0.6-1.1l-9.4-18
								l-32.7-62.8C682.2,396,689.7,372.3,708.9,362.3z"/>
						</g>
					</g>
					<path class="st40" d="M698.9,513.7c-5.8,3-12,4.5-18.1,4.5c-14.2,0-27.8-7.7-34.8-21.1l-51.7-99.1l36.2-61.7
						c6-10.2,6.8-22.1,3.3-32.5l81.9,157C725.6,479.9,718.1,503.6,698.9,513.7z"/>
					<path class="st40" d="M472.2,334.5l32.8,62.9l-58.6,101.4c-7.3,12.5-20.4,19.4-33.9,19.4c-6.7,0-13.6-1.7-19.8-5.4
						c-18.7-10.9-25-35-14-53.7l94.4-162.7c0-0.1,0.1-0.1,0.1-0.2C466.6,307.6,465.7,322,472.2,334.5z"/>
					<g>
						<g>
							<path class="st40" d="M567.9,433.1c-4.4,2.3-8.9,3.6-13.5,4.2c-0.8,0.1-1.5,0.1-2.3,0.2c-0.7,0-1.5,0.1-2.2,0.1
								c-0.2,0-0.3,0-0.5,0c-0.8,0-1.5,0-2.3-0.1c-0.8-0.1-1.6-0.1-2.3-0.2c-1.7-0.2-3.4-0.5-5-1c-0.9-0.3-1.9-0.6-2.8-0.9
								c-9.2-3.1-17.2-9.6-22.1-18.9l-9.9-19l-32.8-62.9c-6.5-12.5-5.6-26.9,1.1-38.2c0.5-0.8,0.9-1.5,1.4-2.3
								c1-1.4,2.1-2.8,3.3-4.1c0.6-0.7,1.2-1.3,1.9-1.9c0.6-0.6,1.3-1.2,2-1.7c0.1-0.1,0.2-0.2,0.3-0.2c0.5-0.5,1-0.9,1.6-1.2
								c0.4-0.3,0.7-0.6,1.1-0.8c0.4-0.3,0.8-0.6,1.2-0.8c0.2-0.1,0.4-0.2,0.6-0.4c0.6-0.4,1.3-0.8,1.9-1.1c0,0,0.1-0.1,0.2-0.1
								c0.1,0,0.1,0,0.2-0.1c0.7-0.4,1.4-0.7,2-1c0.6-0.3,1.1-0.5,1.7-0.7c0.4-0.2,0.9-0.4,1.4-0.5c0.3-0.1,0.6-0.2,0.9-0.3
								c0.4-0.1,0.8-0.2,1.1-0.3c0.4-0.2,0.9-0.3,1.3-0.4c3.1-0.8,6.4-1.2,9.5-1.2c1.7,0,3.4,0.1,5.1,0.3c0,0,0.1,0,0.2,0
								c0.9,0.1,1.7,0.3,2.6,0.5c2.5,0.5,4.9,1.2,7.2,2.2c0.4,0.2,0.7,0.3,1,0.5c0.6,0.2,1.1,0.5,1.7,0.8c0.8,0.4,1.5,0.8,2.3,1.3
								c0.8,0.5,1.5,0.9,2.3,1.4c1.4,1,2.8,2.1,4.1,3.3c0.7,0.6,1.3,1.2,1.9,1.9c0.6,0.6,1.2,1.3,1.7,2c0.1,0.1,0.2,0.2,0.3,0.3
								c0.4,0.5,0.8,1,1.2,1.6c0.3,0.4,0.6,0.7,0.8,1.1c0.3,0.4,0.6,0.8,0.8,1.2c0.1,0.2,0.3,0.4,0.4,0.6c0.4,0.6,0.8,1.3,1.1,1.9
								c0,0,0.1,0.1,0.1,0.2l0.6,1.1l9.4,18l32.7,62.8C594.6,399.3,587.1,423.1,567.9,433.1z"/>
						</g>
					</g>
					<path class="st40" d="M630.4,336.2l-36.2,61.7l-33-63.4c-5.5-10.6-5.7-22.6-1.6-32.8c0,0,0,0,0,0l3-5.2
						c6.9-11.7,18.8-18.5,31.4-19.3c0.7,0,1.5-0.1,2.2-0.1c14.1,0.1,27.6,7.8,34.6,21.1l2.8,5.5l0,0
						C637.2,314.1,636.4,325.9,630.4,336.2z"/>
				</g>
				<g>
					<g>
						<g>
							<path class="st40" d="M351.4,362.3c4.4-2.3,8.9-3.6,13.5-4.2c0.8-0.1,1.5-0.1,2.3-0.2c0.7,0,1.5-0.1,2.2-0.1
								c0.2,0,0.3,0,0.5,0c0.8,0,1.5,0,2.3,0.1c0.8,0.1,1.6,0.1,2.3,0.2c1.7,0.2,3.4,0.5,5,1c0.9,0.3,1.9,0.6,2.8,0.9
								c9.2,3.1,17.2,9.6,22.1,18.9l9.9,19l32.8,62.9c6.5,12.5,5.6,26.9-1.1,38.2c-0.5,0.8-0.9,1.5-1.4,2.3c-1,1.4-2.1,2.8-3.3,4.1
								c-0.6,0.7-1.2,1.3-1.9,1.9c-0.6,0.6-1.3,1.2-2,1.7c-0.1,0.1-0.2,0.2-0.3,0.2c-0.5,0.5-1,0.9-1.6,1.2
								c-0.4,0.3-0.7,0.6-1.1,0.8c-0.4,0.3-0.8,0.6-1.2,0.8c-0.2,0.1-0.4,0.2-0.6,0.4c-0.6,0.4-1.3,0.8-1.9,1.1c0,0-0.1,0.1-0.2,0.1
								c-0.1,0-0.1,0-0.2,0.1c-0.7,0.4-1.4,0.7-2,1c-0.6,0.3-1.1,0.5-1.7,0.7c-0.4,0.2-0.9,0.4-1.4,0.5c-0.3,0.1-0.6,0.2-0.9,0.3
								c-0.4,0.1-0.8,0.2-1.1,0.3c-0.4,0.2-0.9,0.3-1.3,0.4c-3.1,0.8-6.4,1.2-9.5,1.2c-1.7,0-3.4-0.1-5.1-0.3c0,0-0.1,0-0.2,0
								c-0.9-0.1-1.7-0.3-2.6-0.5c-2.5-0.5-4.9-1.2-7.2-2.2c-0.4-0.2-0.7-0.3-1-0.5c-0.6-0.2-1.1-0.5-1.7-0.8
								c-0.8-0.4-1.5-0.8-2.3-1.3c-0.8-0.5-1.5-0.9-2.3-1.4c-1.4-1-2.8-2.1-4.1-3.3c-0.7-0.6-1.3-1.2-1.9-1.9
								c-0.6-0.6-1.2-1.3-1.7-2c-0.1-0.1-0.2-0.2-0.3-0.3c-0.4-0.5-0.8-1-1.2-1.6c-0.3-0.4-0.6-0.7-0.8-1.1
								c-0.3-0.4-0.6-0.8-0.8-1.2c-0.1-0.2-0.3-0.4-0.4-0.6c-0.4-0.6-0.8-1.3-1.1-1.9c0,0-0.1-0.1-0.1-0.2l-0.6-1.1l-9.4-18
								l-32.7-62.8C324.7,396,332.1,372.3,351.4,362.3z"/>
						</g>
					</g>
					<path class="st40" d="M341.4,513.7c-5.8,3-12,4.5-18.1,4.5c-14.2,0-27.8-7.7-34.8-21.1l-51.7-99.1l36.2-61.7
						c6-10.2,6.8-22.1,3.3-32.5l81.9,157C368,479.9,360.6,503.6,341.4,513.7z"/>
					<path class="st40" d="M114.7,334.5l32.8,62.9L88.9,498.8c-7.3,12.5-20.4,19.4-33.9,19.4c-6.7,0-13.6-1.7-19.8-5.4
						c-18.7-10.9-25-35-14-53.7l94.4-162.7c0-0.1,0.1-0.1,0.1-0.2C109,307.6,108.1,322,114.7,334.5z"/>
					<g>
						<g>
							<path class="st40" d="M210.4,433.1c-4.4,2.3-8.9,3.6-13.5,4.2c-0.8,0.1-1.5,0.1-2.3,0.2c-0.7,0-1.5,0.1-2.2,0.1
								c-0.2,0-0.3,0-0.5,0c-0.8,0-1.5,0-2.3-0.1c-0.8-0.1-1.6-0.1-2.3-0.2c-1.7-0.2-3.4-0.5-5-1c-0.9-0.3-1.9-0.6-2.8-0.9
								c-9.2-3.1-17.2-9.6-22.1-18.9l-9.9-19l-32.8-62.9c-6.5-12.5-5.6-26.9,1.1-38.2c0.5-0.8,0.9-1.5,1.4-2.3
								c1-1.4,2.1-2.8,3.3-4.1c0.6-0.7,1.2-1.3,1.9-1.9c0.6-0.6,1.3-1.2,2-1.7c0.1-0.1,0.2-0.2,0.3-0.2c0.5-0.5,1-0.9,1.6-1.2
								c0.4-0.3,0.7-0.6,1.1-0.8c0.4-0.3,0.8-0.6,1.2-0.8c0.2-0.1,0.4-0.2,0.6-0.4c0.6-0.4,1.3-0.8,1.9-1.1c0,0,0.1-0.1,0.2-0.1
								c0.1,0,0.1,0,0.2-0.1c0.7-0.4,1.4-0.7,2-1c0.6-0.3,1.1-0.5,1.7-0.7c0.4-0.2,0.9-0.4,1.4-0.5c0.3-0.1,0.6-0.2,0.9-0.3
								c0.4-0.1,0.8-0.2,1.1-0.3c0.4-0.2,0.9-0.3,1.3-0.4c3.1-0.8,6.4-1.2,9.5-1.2c1.7,0,3.4,0.1,5.1,0.3c0,0,0.1,0,0.2,0
								c0.9,0.1,1.7,0.3,2.6,0.5c2.5,0.5,4.9,1.2,7.2,2.2c0.4,0.2,0.7,0.3,1,0.5c0.6,0.2,1.1,0.5,1.7,0.8c0.8,0.4,1.5,0.8,2.3,1.3
								c0.8,0.5,1.5,0.9,2.3,1.4c1.4,1,2.8,2.1,4.1,3.3c0.7,0.6,1.3,1.2,1.9,1.9c0.6,0.6,1.2,1.3,1.7,2c0.1,0.1,0.2,0.2,0.3,0.3
								c0.4,0.5,0.8,1,1.2,1.6c0.3,0.4,0.6,0.7,0.8,1.1c0.3,0.4,0.6,0.8,0.8,1.2c0.1,0.2,0.3,0.4,0.4,0.6c0.4,0.6,0.8,1.3,1.1,1.9
								c0,0,0.1,0.1,0.1,0.2l0.6,1.1l9.4,18l32.7,62.8C237.1,399.3,229.6,423.1,210.4,433.1z"/>
						</g>
					</g>
					<path class="st40" d="M272.9,336.2l-36.2,61.7l-33-63.4c-5.5-10.6-5.7-22.6-1.6-32.8c0,0,0,0,0,0l3-5.2
						c6.9-11.7,18.8-18.5,31.4-19.3c0.7,0,1.5-0.1,2.2-0.1c14.1,0.1,27.6,7.8,34.6,21.1l2.8,5.5l0,0
						C279.7,314.1,278.9,325.9,272.9,336.2z"/>
				</g>
				<g>
					<g>
						<g>
							<path class="st40" d="M-6,362.3c4.4-2.3,8.9-3.6,13.5-4.2c0.8-0.1,1.5-0.1,2.3-0.2c0.7,0,1.5-0.1,2.2-0.1c0.2,0,0.3,0,0.5,0
								c0.8,0,1.5,0,2.3,0.1c0.8,0.1,1.6,0.1,2.3,0.2c1.7,0.2,3.4,0.5,5,1c0.9,0.3,1.9,0.6,2.8,0.9c9.2,3.1,17.2,9.6,22.1,18.9
								l9.9,19l32.8,62.9c6.5,12.5,5.6,26.9-1.1,38.2c-0.5,0.8-0.9,1.5-1.4,2.3c-1,1.4-2.1,2.8-3.3,4.1c-0.6,0.7-1.2,1.3-1.9,1.9
								c-0.6,0.6-1.3,1.2-2,1.7c-0.1,0.1-0.2,0.2-0.3,0.2c-0.5,0.5-1,0.9-1.6,1.2c-0.4,0.3-0.7,0.6-1.1,0.8
								c-0.4,0.3-0.8,0.6-1.2,0.8c-0.2,0.1-0.4,0.2-0.6,0.4c-0.6,0.4-1.3,0.8-1.9,1.1c0,0-0.1,0.1-0.2,0.1c-0.1,0-0.1,0-0.2,0.1
								c-0.7,0.4-1.4,0.7-2,1c-0.6,0.3-1.1,0.5-1.7,0.7c-0.4,0.2-0.9,0.4-1.4,0.5c-0.3,0.1-0.6,0.2-0.9,0.3
								c-0.4,0.1-0.8,0.2-1.1,0.3c-0.4,0.2-0.9,0.3-1.3,0.4c-3.1,0.8-6.4,1.2-9.5,1.2c-1.7,0-3.4-0.1-5.1-0.3c0,0-0.1,0-0.2,0
								c-0.9-0.1-1.7-0.3-2.6-0.5c-2.5-0.5-4.9-1.2-7.2-2.2c-0.4-0.2-0.7-0.3-1-0.5c-0.6-0.2-1.1-0.5-1.7-0.8
								c-0.8-0.4-1.5-0.8-2.3-1.3c-0.8-0.5-1.5-0.9-2.3-1.4c-1.4-1-2.8-2.1-4.1-3.3c-0.7-0.6-1.3-1.2-1.9-1.9
								c-0.6-0.6-1.2-1.3-1.7-2c-0.1-0.1-0.2-0.2-0.3-0.3c-0.4-0.5-0.8-1-1.2-1.6c-0.3-0.4-0.6-0.7-0.8-1.1
								c-0.3-0.4-0.6-0.8-0.8-1.2c-0.1-0.2-0.3-0.4-0.4-0.6c-0.4-0.6-0.8-1.3-1.1-1.9c0,0-0.1-0.1-0.1-0.2l-0.6-1.1l-9.4-18
								l-32.7-62.8C-32.6,396-25.2,372.3-6,362.3z"/>
						</g>
					</g>
					<path class="st40" d="M-15.9,513.7c-5.8,3-12,4.5-18.1,4.5c-14.2,0-27.8-7.7-34.8-21.1l-51.7-99.1l36.2-61.7
						c6-10.2,6.8-22.1,3.3-32.5l81.9,157C10.7,479.9,3.3,503.6-15.9,513.7z"/>
				</g>
			</g>
			<g>
				<g>
					<path class="st40" d="M1360.4,496.6l32.8,62.9L1334.7,661c-7.3,12.5-20.4,19.4-33.9,19.4c-6.7,0-13.6-1.7-19.8-5.4
						c-18.7-10.9-25-35-14-53.7l94.4-162.7c0-0.1,0.1-0.1,0.1-0.2C1354.8,469.7,1353.9,484.1,1360.4,496.6z"/>
					<g>
						<g>
							<path class="st40" d="M1456.2,595.2c-4.4,2.3-8.9,3.6-13.5,4.2c-0.8,0.1-1.5,0.1-2.3,0.2c-0.7,0-1.5,0.1-2.2,0.1
								c-0.2,0-0.3,0-0.5,0c-0.8,0-1.5,0-2.3-0.1c-0.8-0.1-1.6-0.1-2.3-0.2c-1.7-0.2-3.4-0.5-5-1c-0.9-0.3-1.9-0.6-2.8-0.9
								c-9.2-3.1-17.2-9.6-22.1-18.9l-9.9-19l-32.8-62.9c-6.5-12.5-5.6-26.9,1.1-38.2c0.5-0.8,0.9-1.5,1.4-2.3
								c1-1.4,2.1-2.8,3.3-4.1c0.6-0.7,1.2-1.3,1.9-1.9c0.6-0.6,1.3-1.2,2-1.7c0.1-0.1,0.2-0.2,0.3-0.2c0.5-0.5,1-0.9,1.6-1.2
								c0.4-0.3,0.7-0.6,1.1-0.8c0.4-0.3,0.8-0.6,1.2-0.8c0.2-0.1,0.4-0.2,0.6-0.4c0.6-0.4,1.3-0.8,1.9-1.1c0,0,0.1-0.1,0.2-0.1
								c0.1,0,0.1,0,0.2-0.1c0.7-0.4,1.4-0.7,2-1c0.6-0.3,1.1-0.5,1.7-0.7c0.4-0.2,0.9-0.4,1.4-0.5c0.3-0.1,0.6-0.2,0.9-0.3
								c0.4-0.1,0.8-0.2,1.1-0.3c0.4-0.2,0.9-0.3,1.3-0.4c3.1-0.8,6.4-1.2,9.5-1.2c1.7,0,3.4,0.1,5.1,0.3c0,0,0.1,0,0.2,0
								c0.9,0.1,1.7,0.3,2.6,0.5c2.5,0.5,4.9,1.2,7.2,2.2c0.4,0.2,0.7,0.3,1,0.5c0.6,0.2,1.1,0.5,1.7,0.8c0.8,0.4,1.5,0.8,2.3,1.3
								c0.8,0.5,1.5,0.9,2.3,1.4c1.4,1,2.8,2.1,4.1,3.3c0.7,0.6,1.3,1.2,1.9,1.9c0.6,0.6,1.2,1.3,1.7,2c0.1,0.1,0.2,0.2,0.3,0.3
								c0.4,0.5,0.8,1,1.2,1.6c0.3,0.4,0.6,0.7,0.8,1.1c0.3,0.4,0.6,0.8,0.8,1.2c0.1,0.2,0.3,0.4,0.4,0.6c0.4,0.6,0.8,1.3,1.1,1.9
								c0,0,0.1,0.1,0.1,0.2l0.6,1.1l9.4,18l32.7,62.8C1482.8,561.5,1475.4,585.2,1456.2,595.2z"/>
						</g>
					</g>
					<path class="st40" d="M1518.6,498.3l-36.2,61.7l-33-63.4c-5.5-10.6-5.7-22.6-1.6-32.8c0,0,0,0,0,0l3-5.2
						c6.9-11.7,18.8-18.5,31.4-19.3c0.7,0,1.5-0.1,2.2-0.1c14.1,0.1,27.6,7.8,34.6,21.1l2.8,5.5l0,0
						C1525.5,476.2,1524.7,488.1,1518.6,498.3z"/>
				</g>
				<g>
					<g>
						<g>
							<path class="st40" d="M1239.7,524.4c4.4-2.3,8.9-3.6,13.5-4.2c0.8-0.1,1.5-0.1,2.3-0.2c0.7,0,1.5-0.1,2.2-0.1
								c0.2,0,0.3,0,0.5,0c0.8,0,1.5,0,2.3,0.1c0.8,0.1,1.6,0.1,2.3,0.2c1.7,0.2,3.4,0.5,5,1c0.9,0.3,1.9,0.6,2.8,0.9
								c9.2,3.1,17.2,9.6,22.1,18.9l9.9,19l32.8,62.9c6.5,12.5,5.6,26.9-1.1,38.2c-0.5,0.8-0.9,1.5-1.4,2.3c-1,1.4-2.1,2.8-3.3,4.1
								c-0.6,0.7-1.2,1.3-1.9,1.9c-0.6,0.6-1.3,1.2-2,1.7c-0.1,0.1-0.2,0.2-0.3,0.2c-0.5,0.5-1,0.9-1.6,1.2
								c-0.4,0.3-0.7,0.6-1.1,0.8c-0.4,0.3-0.8,0.6-1.2,0.8c-0.2,0.1-0.4,0.2-0.6,0.4c-0.6,0.4-1.3,0.8-1.9,1.1c0,0-0.1,0.1-0.2,0.1
								c-0.1,0-0.1,0-0.2,0.1c-0.7,0.4-1.4,0.7-2,1c-0.6,0.3-1.1,0.5-1.7,0.7c-0.4,0.2-0.9,0.4-1.4,0.5c-0.3,0.1-0.6,0.2-0.9,0.3
								c-0.4,0.1-0.8,0.2-1.1,0.3c-0.4,0.2-0.9,0.3-1.3,0.4c-3.1,0.8-6.4,1.2-9.5,1.2c-1.7,0-3.4-0.1-5.1-0.3c0,0-0.1,0-0.2,0
								c-0.9-0.1-1.7-0.3-2.6-0.5c-2.5-0.5-4.9-1.2-7.2-2.2c-0.4-0.2-0.7-0.3-1-0.5c-0.6-0.2-1.1-0.5-1.7-0.8
								c-0.8-0.4-1.5-0.8-2.3-1.3c-0.8-0.5-1.5-0.9-2.3-1.4c-1.4-1-2.8-2.1-4.1-3.3c-0.7-0.6-1.3-1.2-1.9-1.9
								c-0.6-0.6-1.2-1.3-1.7-2c-0.1-0.1-0.2-0.2-0.3-0.3c-0.4-0.5-0.8-1-1.2-1.6c-0.3-0.4-0.6-0.7-0.8-1.1
								c-0.3-0.4-0.6-0.8-0.8-1.2c-0.1-0.2-0.3-0.4-0.4-0.6c-0.4-0.6-0.8-1.3-1.1-1.9c0,0-0.1-0.1-0.1-0.2l-0.6-1.1l-9.4-18
								l-32.7-62.8C1213,558.1,1220.5,534.4,1239.7,524.4z"/>
						</g>
					</g>
					<path class="st40" d="M1229.7,675.8c-5.8,3-12,4.5-18.1,4.5c-14.2,0-27.8-7.7-34.8-21.1l-51.7-99.1l36.2-61.7
						c6-10.2,6.8-22.1,3.3-32.5l81.9,157C1256.4,642.1,1248.9,665.8,1229.7,675.8z"/>
					<path class="st40" d="M1003,496.6l32.8,62.9L977.3,661c-7.3,12.5-20.4,19.4-33.9,19.4c-6.7,0-13.6-1.7-19.8-5.4
						c-18.7-10.9-25-35-14-53.7l94.4-162.7c0-0.1,0.1-0.1,0.1-0.2C997.4,469.7,996.5,484.1,1003,496.6z"/>
					<g>
						<g>
							<path class="st40" d="M1098.7,595.2c-4.4,2.3-8.9,3.6-13.5,4.2c-0.8,0.1-1.5,0.1-2.3,0.2c-0.7,0-1.5,0.1-2.2,0.1
								c-0.2,0-0.3,0-0.5,0c-0.8,0-1.5,0-2.3-0.1c-0.8-0.1-1.6-0.1-2.3-0.2c-1.7-0.2-3.4-0.5-5-1c-0.9-0.3-1.9-0.6-2.8-0.9
								c-9.2-3.1-17.2-9.6-22.1-18.9l-9.9-19l-32.8-62.9c-6.5-12.5-5.6-26.9,1.1-38.2c0.5-0.8,0.9-1.5,1.4-2.3
								c1-1.4,2.1-2.8,3.3-4.1c0.6-0.7,1.2-1.3,1.9-1.9c0.6-0.6,1.3-1.2,2-1.7c0.1-0.1,0.2-0.2,0.3-0.2c0.5-0.5,1-0.9,1.6-1.2
								c0.4-0.3,0.7-0.6,1.1-0.8c0.4-0.3,0.8-0.6,1.2-0.8c0.2-0.1,0.4-0.2,0.6-0.4c0.6-0.4,1.3-0.8,1.9-1.1c0,0,0.1-0.1,0.2-0.1
								c0.1,0,0.1,0,0.2-0.1c0.7-0.4,1.4-0.7,2-1c0.6-0.3,1.1-0.5,1.7-0.7c0.4-0.2,0.9-0.4,1.4-0.5c0.3-0.1,0.6-0.2,0.9-0.3
								c0.4-0.1,0.8-0.2,1.1-0.3c0.4-0.2,0.9-0.3,1.3-0.4c3.1-0.8,6.4-1.2,9.5-1.2c1.7,0,3.4,0.1,5.1,0.3c0,0,0.1,0,0.2,0
								c0.9,0.1,1.7,0.3,2.6,0.5c2.5,0.5,4.9,1.2,7.2,2.2c0.4,0.2,0.7,0.3,1,0.5c0.6,0.2,1.1,0.5,1.7,0.8c0.8,0.4,1.5,0.8,2.3,1.3
								c0.8,0.5,1.5,0.9,2.3,1.4c1.4,1,2.8,2.1,4.1,3.3c0.7,0.6,1.3,1.2,1.9,1.9c0.6,0.6,1.2,1.3,1.7,2c0.1,0.1,0.2,0.2,0.3,0.3
								c0.4,0.5,0.8,1,1.2,1.6c0.3,0.4,0.6,0.7,0.8,1.1c0.3,0.4,0.6,0.8,0.8,1.2c0.1,0.2,0.3,0.4,0.4,0.6c0.4,0.6,0.8,1.3,1.1,1.9
								c0,0,0.1,0.1,0.1,0.2l0.6,1.1l9.4,18l32.7,62.8C1125.4,561.5,1117.9,585.2,1098.7,595.2z"/>
						</g>
					</g>
					<path class="st40" d="M1161.2,498.3l-36.2,61.7l-33-63.4c-5.5-10.6-5.7-22.6-1.6-32.8c0,0,0,0,0,0l3-5.2
						c6.9-11.7,18.8-18.5,31.4-19.3c0.7,0,1.5-0.1,2.2-0.1c14.1,0.1,27.6,7.8,34.6,21.1l2.8,5.5l0,0
						C1168,476.2,1167.2,488.1,1161.2,498.3z"/>
				</g>
				<g>
					<g>
						<g>
							<path class="st40" d="M882.4,524.4c4.4-2.3,8.9-3.6,13.5-4.2c0.8-0.1,1.5-0.1,2.3-0.2c0.7,0,1.5-0.1,2.2-0.1
								c0.2,0,0.3,0,0.5,0c0.8,0,1.5,0,2.3,0.1c0.8,0.1,1.6,0.1,2.3,0.2c1.7,0.2,3.4,0.5,5,1c0.9,0.3,1.9,0.6,2.8,0.9
								c9.2,3.1,17.2,9.6,22.1,18.9l9.9,19l32.8,62.9c6.5,12.5,5.6,26.9-1.1,38.2c-0.5,0.8-0.9,1.5-1.4,2.3c-1,1.4-2.1,2.8-3.3,4.1
								c-0.6,0.7-1.2,1.3-1.9,1.9c-0.6,0.6-1.3,1.2-2,1.7c-0.1,0.1-0.2,0.2-0.3,0.2c-0.5,0.5-1,0.9-1.6,1.2
								c-0.4,0.3-0.7,0.6-1.1,0.8c-0.4,0.3-0.8,0.6-1.2,0.8c-0.2,0.1-0.4,0.2-0.6,0.4c-0.6,0.4-1.3,0.8-1.9,1.1c0,0-0.1,0.1-0.2,0.1
								c-0.1,0-0.1,0-0.2,0.1c-0.7,0.4-1.4,0.7-2,1c-0.6,0.3-1.1,0.5-1.7,0.7c-0.4,0.2-0.9,0.4-1.4,0.5c-0.3,0.1-0.6,0.2-0.9,0.3
								c-0.4,0.1-0.8,0.2-1.1,0.3c-0.4,0.2-0.9,0.3-1.3,0.4c-3.1,0.8-6.4,1.2-9.5,1.2c-1.7,0-3.4-0.1-5.1-0.3c0,0-0.1,0-0.2,0
								c-0.9-0.1-1.7-0.3-2.6-0.5c-2.5-0.5-4.9-1.2-7.2-2.2c-0.4-0.2-0.7-0.3-1-0.5c-0.6-0.2-1.1-0.5-1.7-0.8
								c-0.8-0.4-1.5-0.8-2.3-1.3c-0.8-0.5-1.5-0.9-2.3-1.4c-1.4-1-2.8-2.1-4.1-3.3c-0.7-0.6-1.3-1.2-1.9-1.9
								c-0.6-0.6-1.2-1.3-1.7-2c-0.1-0.1-0.2-0.2-0.3-0.3c-0.4-0.5-0.8-1-1.2-1.6c-0.3-0.4-0.6-0.7-0.8-1.1
								c-0.3-0.4-0.6-0.8-0.8-1.2c-0.1-0.2-0.3-0.4-0.4-0.6c-0.4-0.6-0.8-1.3-1.1-1.9c0,0-0.1-0.1-0.1-0.2l-0.6-1.1l-9.4-18
								l-32.7-62.8C855.7,558.1,863.2,534.4,882.4,524.4z"/>
						</g>
					</g>
					<path class="st40" d="M872.4,675.8c-5.8,3-12,4.5-18.1,4.5c-14.2,0-27.8-7.7-34.8-21.1L767.7,560l36.2-61.7
						c6-10.2,6.8-22.1,3.3-32.5l81.9,157C899.1,642.1,891.6,665.8,872.4,675.8z"/>
					<path class="st40" d="M645.7,496.6l32.8,62.9L619.9,661c-7.3,12.5-20.4,19.4-33.9,19.4c-6.7,0-13.6-1.7-19.8-5.4
						c-18.7-10.9-25-35-14-53.7l94.4-162.7c0-0.1,0.1-0.1,0.1-0.2C640.1,469.7,639.2,484.1,645.7,496.6z"/>
					<g>
						<g>
							<path class="st40" d="M741.4,595.2c-4.4,2.3-8.9,3.6-13.5,4.2c-0.8,0.1-1.5,0.1-2.3,0.2c-0.7,0-1.5,0.1-2.2,0.1
								c-0.2,0-0.3,0-0.5,0c-0.8,0-1.5,0-2.3-0.1c-0.8-0.1-1.6-0.1-2.3-0.2c-1.7-0.2-3.4-0.5-5-1c-0.9-0.3-1.9-0.6-2.8-0.9
								c-9.2-3.1-17.2-9.6-22.1-18.9l-9.9-19l-32.8-62.9c-6.5-12.5-5.6-26.9,1.1-38.2c0.5-0.8,0.9-1.5,1.4-2.3
								c1-1.4,2.1-2.8,3.3-4.1c0.6-0.7,1.2-1.3,1.9-1.9c0.6-0.6,1.3-1.2,2-1.7c0.1-0.1,0.2-0.2,0.3-0.2c0.5-0.5,1-0.9,1.6-1.2
								c0.4-0.3,0.7-0.6,1.1-0.8c0.4-0.3,0.8-0.6,1.2-0.8c0.2-0.1,0.4-0.2,0.6-0.4c0.6-0.4,1.3-0.8,1.9-1.1c0,0,0.1-0.1,0.2-0.1
								c0.1,0,0.1,0,0.2-0.1c0.7-0.4,1.4-0.7,2-1c0.6-0.3,1.1-0.5,1.7-0.7c0.4-0.2,0.9-0.4,1.4-0.5c0.3-0.1,0.6-0.2,0.9-0.3
								c0.4-0.1,0.8-0.2,1.1-0.3c0.4-0.2,0.9-0.3,1.3-0.4c3.1-0.8,6.4-1.2,9.5-1.2c1.7,0,3.4,0.1,5.1,0.3c0,0,0.1,0,0.2,0
								c0.9,0.1,1.7,0.3,2.6,0.5c2.5,0.5,4.9,1.2,7.2,2.2c0.4,0.2,0.7,0.3,1,0.5c0.6,0.2,1.1,0.5,1.7,0.8c0.8,0.4,1.5,0.8,2.3,1.3
								c0.8,0.5,1.5,0.9,2.3,1.4c1.4,1,2.8,2.1,4.1,3.3c0.7,0.6,1.3,1.2,1.9,1.9c0.6,0.6,1.2,1.3,1.7,2c0.1,0.1,0.2,0.2,0.3,0.3
								c0.4,0.5,0.8,1,1.2,1.6c0.3,0.4,0.6,0.7,0.8,1.1c0.3,0.4,0.6,0.8,0.8,1.2c0.1,0.2,0.3,0.4,0.4,0.6c0.4,0.6,0.8,1.3,1.1,1.9
								c0,0,0.1,0.1,0.1,0.2l0.6,1.1l9.4,18l32.7,62.8C768.1,561.5,760.6,585.2,741.4,595.2z"/>
						</g>
					</g>
					<path class="st40" d="M803.9,498.3L767.7,560l-33-63.4c-5.5-10.6-5.7-22.6-1.6-32.8c0,0,0,0,0,0l3-5.2
						c6.9-11.7,18.8-18.5,31.4-19.3c0.7,0,1.5-0.1,2.2-0.1c14.1,0.1,27.6,7.8,34.6,21.1l2.8,5.5l0,0
						C810.7,476.2,809.9,488.1,803.9,498.3z"/>
				</g>
				<g>
					<g>
						<g>
							<path class="st40" d="M524.9,524.4c4.4-2.3,8.9-3.6,13.5-4.2c0.8-0.1,1.5-0.1,2.3-0.2c0.7,0,1.5-0.1,2.2-0.1
								c0.2,0,0.3,0,0.5,0c0.8,0,1.5,0,2.3,0.1c0.8,0.1,1.6,0.1,2.3,0.2c1.7,0.2,3.4,0.5,5,1c0.9,0.3,1.9,0.6,2.8,0.9
								c9.2,3.1,17.2,9.6,22.1,18.9l9.9,19l32.8,62.9c6.5,12.5,5.6,26.9-1.1,38.2c-0.5,0.8-0.9,1.5-1.4,2.3c-1,1.4-2.1,2.8-3.3,4.1
								c-0.6,0.7-1.2,1.3-1.9,1.9c-0.6,0.6-1.3,1.2-2,1.7c-0.1,0.1-0.2,0.2-0.3,0.2c-0.5,0.5-1,0.9-1.6,1.2
								c-0.4,0.3-0.7,0.6-1.1,0.8c-0.4,0.3-0.8,0.6-1.2,0.8c-0.2,0.1-0.4,0.2-0.6,0.4c-0.6,0.4-1.3,0.8-1.9,1.1c0,0-0.1,0.1-0.2,0.1
								c-0.1,0-0.1,0-0.2,0.1c-0.7,0.4-1.4,0.7-2,1c-0.6,0.3-1.1,0.5-1.7,0.7c-0.4,0.2-0.9,0.4-1.4,0.5c-0.3,0.1-0.6,0.2-0.9,0.3
								c-0.4,0.1-0.8,0.2-1.1,0.3c-0.4,0.2-0.9,0.3-1.3,0.4c-3.1,0.8-6.4,1.2-9.5,1.2c-1.7,0-3.4-0.1-5.1-0.3c0,0-0.1,0-0.2,0
								c-0.9-0.1-1.7-0.3-2.6-0.5c-2.5-0.5-4.9-1.2-7.2-2.2c-0.4-0.2-0.7-0.3-1-0.5c-0.6-0.2-1.1-0.5-1.7-0.8
								c-0.8-0.4-1.5-0.8-2.3-1.3c-0.8-0.5-1.5-0.9-2.3-1.4c-1.4-1-2.8-2.1-4.1-3.3c-0.7-0.6-1.3-1.2-1.9-1.9
								c-0.6-0.6-1.2-1.3-1.7-2c-0.1-0.1-0.2-0.2-0.3-0.3c-0.4-0.5-0.8-1-1.2-1.6c-0.3-0.4-0.6-0.7-0.8-1.1
								c-0.3-0.4-0.6-0.8-0.8-1.2c-0.1-0.2-0.3-0.4-0.4-0.6c-0.4-0.6-0.8-1.3-1.1-1.9c0,0-0.1-0.1-0.1-0.2l-0.6-1.1l-9.4-18
								l-32.7-62.8C498.2,558.1,505.6,534.4,524.9,524.4z"/>
						</g>
					</g>
					<path class="st40" d="M514.9,675.8c-5.8,3-12,4.5-18.1,4.5c-14.2,0-27.8-7.7-34.8-21.1L410.2,560l36.2-61.7
						c6-10.2,6.8-22.1,3.3-32.5l81.9,157C541.5,642.1,534.1,665.8,514.9,675.8z"/>
					<path class="st40" d="M288.2,496.6l32.8,62.9L262.4,661c-7.3,12.5-20.4,19.4-33.9,19.4c-6.7,0-13.6-1.7-19.8-5.4
						c-18.7-10.9-25-35-14-53.7l94.4-162.7c0-0.1,0.1-0.1,0.1-0.2C282.5,469.7,281.6,484.1,288.2,496.6z"/>
					<g>
						<g>
							<path class="st40" d="M383.9,595.2c-4.4,2.3-8.9,3.6-13.5,4.2c-0.8,0.1-1.5,0.1-2.3,0.2c-0.7,0-1.5,0.1-2.2,0.1
								c-0.2,0-0.3,0-0.5,0c-0.8,0-1.5,0-2.3-0.1c-0.8-0.1-1.6-0.1-2.3-0.2c-1.7-0.2-3.4-0.5-5-1c-0.9-0.3-1.9-0.6-2.8-0.9
								c-9.2-3.1-17.2-9.6-22.1-18.9l-9.9-19l-32.8-62.9c-6.5-12.5-5.6-26.9,1.1-38.2c0.5-0.8,0.9-1.5,1.4-2.3
								c1-1.4,2.1-2.8,3.3-4.1c0.6-0.7,1.2-1.3,1.9-1.9c0.6-0.6,1.3-1.2,2-1.7c0.1-0.1,0.2-0.2,0.3-0.2c0.5-0.5,1-0.9,1.6-1.2
								c0.4-0.3,0.7-0.6,1.1-0.8c0.4-0.3,0.8-0.6,1.2-0.8c0.2-0.1,0.4-0.2,0.6-0.4c0.6-0.4,1.3-0.8,1.9-1.1c0,0,0.1-0.1,0.2-0.1
								c0.1,0,0.1,0,0.2-0.1c0.7-0.4,1.4-0.7,2-1c0.6-0.3,1.1-0.5,1.7-0.7c0.4-0.2,0.9-0.4,1.4-0.5c0.3-0.1,0.6-0.2,0.9-0.3
								c0.4-0.1,0.8-0.2,1.1-0.3c0.4-0.2,0.9-0.3,1.3-0.4c3.1-0.8,6.4-1.2,9.5-1.2c1.7,0,3.4,0.1,5.1,0.3c0,0,0.1,0,0.2,0
								c0.9,0.1,1.7,0.3,2.6,0.5c2.5,0.5,4.9,1.2,7.2,2.2c0.4,0.2,0.7,0.3,1,0.5c0.6,0.2,1.1,0.5,1.7,0.8c0.8,0.4,1.5,0.8,2.3,1.3
								c0.8,0.5,1.5,0.9,2.3,1.4c1.4,1,2.8,2.1,4.1,3.3c0.7,0.6,1.3,1.2,1.9,1.9c0.6,0.6,1.2,1.3,1.7,2c0.1,0.1,0.2,0.2,0.3,0.3
								c0.4,0.5,0.8,1,1.2,1.6c0.3,0.4,0.6,0.7,0.8,1.1c0.3,0.4,0.6,0.8,0.8,1.2c0.1,0.2,0.3,0.4,0.4,0.6c0.4,0.6,0.8,1.3,1.1,1.9
								c0,0,0.1,0.1,0.1,0.2l0.6,1.1l9.4,18l32.7,62.8C410.5,561.5,403.1,585.2,383.9,595.2z"/>
						</g>
					</g>
					<path class="st40" d="M446.4,498.3L410.2,560l-33-63.4c-5.5-10.6-5.7-22.6-1.6-32.8c0,0,0,0,0,0l3-5.2
						c6.9-11.7,18.8-18.5,31.4-19.3c0.7,0,1.5-0.1,2.2-0.1c14.1,0.1,27.6,7.8,34.6,21.1l2.8,5.5l0,0
						C453.2,476.2,452.4,488.1,446.4,498.3z"/>
				</g>
				<g>
					<g>
						<g>
							<path class="st40" d="M167.5,524.4c4.4-2.3,8.9-3.6,13.5-4.2c0.8-0.1,1.5-0.1,2.3-0.2c0.7,0,1.5-0.1,2.2-0.1
								c0.2,0,0.3,0,0.5,0c0.8,0,1.5,0,2.3,0.1c0.8,0.1,1.6,0.1,2.3,0.2c1.7,0.2,3.4,0.5,5,1c0.9,0.3,1.9,0.6,2.8,0.9
								c9.2,3.1,17.2,9.6,22.1,18.9l9.9,19l32.8,62.9c6.5,12.5,5.6,26.9-1.1,38.2c-0.5,0.8-0.9,1.5-1.4,2.3c-1,1.4-2.1,2.8-3.3,4.1
								c-0.6,0.7-1.2,1.3-1.9,1.9c-0.6,0.6-1.3,1.2-2,1.7c-0.1,0.1-0.2,0.2-0.3,0.2c-0.5,0.5-1,0.9-1.6,1.2
								c-0.4,0.3-0.7,0.6-1.1,0.8c-0.4,0.3-0.8,0.6-1.2,0.8c-0.2,0.1-0.4,0.2-0.6,0.4c-0.6,0.4-1.3,0.8-1.9,1.1c0,0-0.1,0.1-0.2,0.1
								c-0.1,0-0.1,0-0.2,0.1c-0.7,0.4-1.4,0.7-2,1c-0.6,0.3-1.1,0.5-1.7,0.7c-0.4,0.2-0.9,0.4-1.4,0.5c-0.3,0.1-0.6,0.2-0.9,0.3
								c-0.4,0.1-0.8,0.2-1.1,0.3c-0.4,0.2-0.9,0.3-1.3,0.4c-3.1,0.8-6.4,1.2-9.5,1.2c-1.7,0-3.4-0.1-5.1-0.3c0,0-0.1,0-0.2,0
								c-0.9-0.1-1.7-0.3-2.6-0.5c-2.5-0.5-4.9-1.2-7.2-2.2c-0.4-0.2-0.7-0.3-1-0.5c-0.6-0.2-1.1-0.5-1.7-0.8
								c-0.8-0.4-1.5-0.8-2.3-1.3c-0.8-0.5-1.5-0.9-2.3-1.4c-1.4-1-2.8-2.1-4.1-3.3c-0.7-0.6-1.3-1.2-1.9-1.9
								c-0.6-0.6-1.2-1.3-1.7-2c-0.1-0.1-0.2-0.2-0.3-0.3c-0.4-0.5-0.8-1-1.2-1.6c-0.3-0.4-0.6-0.7-0.8-1.1
								c-0.3-0.4-0.6-0.8-0.8-1.2c-0.1-0.2-0.3-0.4-0.4-0.6c-0.4-0.6-0.8-1.3-1.1-1.9c0,0-0.1-0.1-0.1-0.2l-0.6-1.1l-9.4-18
								l-32.7-62.8C140.9,558.1,148.3,534.4,167.5,524.4z"/>
						</g>
					</g>
					<path class="st40" d="M157.5,675.8c-5.8,3-12,4.5-18.1,4.5c-14.2,0-27.8-7.7-34.8-21.1L52.9,560L89,498.3
						c6-10.2,6.8-22.1,3.3-32.5l81.9,157C184.2,642.1,176.8,665.8,157.5,675.8z"/>
					<g>
						<g>
							<path class="st40" d="M26.5,595.2c-4.4,2.3-8.9,3.6-13.5,4.2c-0.8,0.1-1.5,0.1-2.3,0.2c-0.7,0-1.5,0.1-2.2,0.1
								c-0.2,0-0.3,0-0.5,0c-0.8,0-1.5,0-2.3-0.1c-0.8-0.1-1.6-0.1-2.3-0.2c-1.7-0.2-3.4-0.5-5-1c-0.9-0.3-1.9-0.6-2.8-0.9
								c-9.2-3.1-17.2-9.6-22.1-18.9l-9.9-19l-32.8-62.9c-6.5-12.5-5.6-26.9,1.1-38.2c0.5-0.8,0.9-1.5,1.4-2.3
								c1-1.4,2.1-2.8,3.3-4.1c0.6-0.7,1.2-1.3,1.9-1.9c0.6-0.6,1.3-1.2,2-1.7c0.1-0.1,0.2-0.2,0.3-0.2c0.5-0.5,1-0.9,1.6-1.2
								c0.4-0.3,0.7-0.6,1.1-0.8c0.4-0.3,0.8-0.6,1.2-0.8c0.2-0.1,0.4-0.2,0.6-0.4c0.6-0.4,1.3-0.8,1.9-1.1c0,0,0.1-0.1,0.2-0.1
								c0.1,0,0.1,0,0.2-0.1c0.7-0.4,1.4-0.7,2-1c0.6-0.3,1.1-0.5,1.7-0.7c0.4-0.2,0.9-0.4,1.4-0.5c0.3-0.1,0.6-0.2,0.9-0.3
								c0.4-0.1,0.8-0.2,1.1-0.3c0.4-0.2,0.9-0.3,1.3-0.4c3.1-0.8,6.4-1.2,9.5-1.2c1.7,0,3.4,0.1,5.1,0.3c0,0,0.1,0,0.2,0
								c0.9,0.1,1.7,0.3,2.6,0.5c2.5,0.5,4.9,1.2,7.2,2.2c0.4,0.2,0.7,0.3,1,0.5c0.6,0.2,1.1,0.5,1.7,0.8c0.8,0.4,1.5,0.8,2.3,1.3
								c0.8,0.5,1.5,0.9,2.3,1.4c1.4,1,2.8,2.1,4.1,3.3c0.7,0.6,1.3,1.2,1.9,1.9c0.6,0.6,1.2,1.3,1.7,2c0.1,0.1,0.2,0.2,0.3,0.3
								c0.4,0.5,0.8,1,1.2,1.6c0.3,0.4,0.6,0.7,0.8,1.1c0.3,0.4,0.6,0.8,0.8,1.2c0.1,0.2,0.3,0.4,0.4,0.6c0.4,0.6,0.8,1.3,1.1,1.9
								c0,0,0.1,0.1,0.1,0.2l0.6,1.1l9.4,18l32.7,62.8C53.2,561.5,45.8,585.2,26.5,595.2z"/>
						</g>
					</g>
					<path class="st40" d="M89,498.3L52.9,560l-33-63.4c-5.5-10.6-5.7-22.6-1.6-32.8c0,0,0,0,0,0l3-5.2
						c6.9-11.7,18.8-18.5,31.4-19.3c0.7,0,1.5-0.1,2.2-0.1c14.1,0.1,27.6,7.8,34.6,21.1l2.8,5.5l0,0C95.9,476.2,95.1,488.1,89,498.3
						z"/>
				</g>
			</g>
			<g>
				<g>
					<g>
						<g>
							<path class="st40" d="M1413.6,686.7c4.4-2.3,8.9-3.6,13.5-4.2c0.8-0.1,1.5-0.1,2.3-0.2c0.7,0,1.5-0.1,2.2-0.1
								c0.2,0,0.3,0,0.5,0c0.8,0,1.5,0,2.3,0.1c0.8,0.1,1.6,0.1,2.3,0.2c1.7,0.2,3.4,0.5,5,1c0.9,0.3,1.9,0.6,2.8,0.9
								c9.2,3.1,17.2,9.6,22.1,18.9l9.9,19l32.8,62.9c6.5,12.5,5.6,26.9-1.1,38.2c-0.5,0.8-0.9,1.5-1.4,2.3c-1,1.4-2.1,2.8-3.3,4.1
								c-0.6,0.7-1.2,1.3-1.9,1.9c-0.6,0.6-1.3,1.2-2,1.7c-0.1,0.1-0.2,0.2-0.3,0.2c-0.5,0.5-1,0.9-1.6,1.2
								c-0.4,0.3-0.7,0.6-1.1,0.8c-0.4,0.3-0.8,0.6-1.2,0.8c-0.2,0.1-0.4,0.2-0.6,0.4c-0.6,0.4-1.3,0.8-1.9,1.1c0,0-0.1,0.1-0.2,0.1
								c-0.1,0-0.1,0-0.2,0.1c-0.7,0.4-1.4,0.7-2,1c-0.6,0.3-1.1,0.5-1.7,0.7c-0.4,0.2-0.9,0.4-1.4,0.5c-0.3,0.1-0.6,0.2-0.9,0.3
								c-0.4,0.1-0.8,0.2-1.1,0.3c-0.4,0.2-0.9,0.3-1.3,0.4c-3.1,0.8-6.4,1.2-9.5,1.2c-1.7,0-3.4-0.1-5.1-0.3c0,0-0.1,0-0.2,0
								c-0.9-0.1-1.7-0.3-2.6-0.5c-2.5-0.5-4.9-1.2-7.2-2.2c-0.4-0.2-0.7-0.3-1-0.5c-0.6-0.2-1.1-0.5-1.7-0.8
								c-0.8-0.4-1.5-0.8-2.3-1.3c-0.8-0.5-1.5-0.9-2.3-1.4c-1.4-1-2.8-2.1-4.1-3.3c-0.7-0.6-1.3-1.2-1.9-1.9
								c-0.6-0.6-1.2-1.3-1.7-2c-0.1-0.1-0.2-0.2-0.3-0.3c-0.4-0.5-0.8-1-1.2-1.6c-0.3-0.4-0.6-0.7-0.8-1.1
								c-0.3-0.4-0.6-0.8-0.8-1.2c-0.1-0.2-0.3-0.4-0.4-0.6c-0.4-0.6-0.8-1.3-1.1-1.9c0,0-0.1-0.1-0.1-0.2l-0.6-1.1l-9.4-18
								l-32.7-62.8C1386.9,720.4,1394.3,696.7,1413.6,686.7z"/>
						</g>
					</g>
					<path class="st40" d="M1403.6,838.1c-5.8,3-12,4.5-18.1,4.5c-14.2,0-27.8-7.7-34.8-21.1l-51.7-99.1l36.2-61.7
						c6-10.2,6.8-22.1,3.3-32.5l81.9,157C1430.2,804.4,1422.8,828.1,1403.6,838.1z"/>
					<path class="st40" d="M1176.9,658.9l32.8,62.9l-58.6,101.4c-7.3,12.5-20.4,19.4-33.9,19.4c-6.7,0-13.6-1.7-19.8-5.4
						c-18.7-10.9-25-35-14-53.7l94.4-162.7c0-0.1,0.1-0.1,0.1-0.2C1171.2,632,1170.3,646.4,1176.9,658.9z"/>
					<g>
						<g>
							<path class="st40" d="M1272.6,757.5c-4.4,2.3-8.9,3.6-13.5,4.2c-0.8,0.1-1.5,0.1-2.3,0.2c-0.7,0-1.5,0.1-2.2,0.1
								c-0.2,0-0.3,0-0.5,0c-0.8,0-1.5,0-2.3-0.1c-0.8-0.1-1.6-0.1-2.3-0.2c-1.7-0.2-3.4-0.5-5-1c-0.9-0.3-1.9-0.6-2.8-0.9
								c-9.2-3.1-17.2-9.6-22.1-18.9l-9.9-19l-32.8-62.9c-6.5-12.5-5.6-26.9,1.1-38.2c0.5-0.8,0.9-1.5,1.4-2.3
								c1-1.4,2.1-2.8,3.3-4.1c0.6-0.7,1.2-1.3,1.9-1.9c0.6-0.6,1.3-1.2,2-1.7c0.1-0.1,0.2-0.2,0.3-0.2c0.5-0.5,1-0.9,1.6-1.2
								c0.4-0.3,0.7-0.6,1.1-0.8c0.4-0.3,0.8-0.6,1.2-0.8c0.2-0.1,0.4-0.2,0.6-0.4c0.6-0.4,1.3-0.8,1.9-1.1c0,0,0.1-0.1,0.2-0.1
								c0.1,0,0.1,0,0.2-0.1c0.7-0.4,1.4-0.7,2-1c0.6-0.3,1.1-0.5,1.7-0.7c0.4-0.2,0.9-0.4,1.4-0.5c0.3-0.1,0.6-0.2,0.9-0.3
								c0.4-0.1,0.8-0.2,1.1-0.3c0.4-0.2,0.9-0.3,1.3-0.4c3.1-0.8,6.4-1.2,9.5-1.2c1.7,0,3.4,0.1,5.1,0.3c0,0,0.1,0,0.2,0
								c0.9,0.1,1.7,0.3,2.6,0.5c2.5,0.5,4.9,1.2,7.2,2.2c0.4,0.2,0.7,0.3,1,0.5c0.6,0.2,1.1,0.5,1.7,0.8c0.8,0.4,1.5,0.8,2.3,1.3
								c0.8,0.5,1.5,0.9,2.3,1.4c1.4,1,2.8,2.1,4.1,3.3c0.7,0.6,1.3,1.2,1.9,1.9c0.6,0.6,1.2,1.3,1.7,2c0.1,0.1,0.2,0.2,0.3,0.3
								c0.4,0.5,0.8,1,1.2,1.6c0.3,0.4,0.6,0.7,0.8,1.1c0.3,0.4,0.6,0.8,0.8,1.2c0.1,0.2,0.3,0.4,0.4,0.6c0.4,0.6,0.8,1.3,1.1,1.9
								c0,0,0.1,0.1,0.1,0.2l0.6,1.1l9.4,18l32.7,62.8C1299.2,723.8,1291.8,747.5,1272.6,757.5z"/>
						</g>
					</g>
					<path class="st40" d="M1335.1,660.6l-36.2,61.7l-33-63.4c-5.5-10.6-5.7-22.6-1.6-32.8c0,0,0,0,0,0l3-5.2
						c6.9-11.7,18.8-18.5,31.4-19.3c0.7,0,1.5-0.1,2.2-0.1c14.1,0.1,27.6,7.8,34.6,21.1l2.8,5.5l0,0
						C1341.9,638.5,1341.1,650.4,1335.1,660.6z"/>
				</g>
				<g>
					<g>
						<g>
							<path class="st40" d="M1056.1,686.7c4.4-2.3,8.9-3.6,13.5-4.2c0.8-0.1,1.5-0.1,2.3-0.2c0.7,0,1.5-0.1,2.2-0.1
								c0.2,0,0.3,0,0.5,0c0.8,0,1.5,0,2.3,0.1c0.8,0.1,1.6,0.1,2.3,0.2c1.7,0.2,3.4,0.5,5,1c0.9,0.3,1.9,0.6,2.8,0.9
								c9.2,3.1,17.2,9.6,22.1,18.9l9.9,19l32.8,62.9c6.5,12.5,5.6,26.9-1.1,38.2c-0.5,0.8-0.9,1.5-1.4,2.3c-1,1.4-2.1,2.8-3.3,4.1
								c-0.6,0.7-1.2,1.3-1.9,1.9c-0.6,0.6-1.3,1.2-2,1.7c-0.1,0.1-0.2,0.2-0.3,0.2c-0.5,0.5-1,0.9-1.6,1.2
								c-0.4,0.3-0.7,0.6-1.1,0.8c-0.4,0.3-0.8,0.6-1.2,0.8c-0.2,0.1-0.4,0.2-0.6,0.4c-0.6,0.4-1.3,0.8-1.9,1.1c0,0-0.1,0.1-0.2,0.1
								c-0.1,0-0.1,0-0.2,0.1c-0.7,0.4-1.4,0.7-2,1c-0.6,0.3-1.1,0.5-1.7,0.7c-0.4,0.2-0.9,0.4-1.4,0.5c-0.3,0.1-0.6,0.2-0.9,0.3
								c-0.4,0.1-0.8,0.2-1.1,0.3c-0.4,0.2-0.9,0.3-1.3,0.4c-3.1,0.8-6.4,1.2-9.5,1.2c-1.7,0-3.4-0.1-5.1-0.3c0,0-0.1,0-0.2,0
								c-0.9-0.1-1.7-0.3-2.6-0.5c-2.5-0.5-4.9-1.2-7.2-2.2c-0.4-0.2-0.7-0.3-1-0.5c-0.6-0.2-1.1-0.5-1.7-0.8
								c-0.8-0.4-1.5-0.8-2.3-1.3c-0.8-0.5-1.5-0.9-2.3-1.4c-1.4-1-2.8-2.1-4.1-3.3c-0.7-0.6-1.3-1.2-1.9-1.9
								c-0.6-0.6-1.2-1.3-1.7-2c-0.1-0.1-0.2-0.2-0.3-0.3c-0.4-0.5-0.8-1-1.2-1.6c-0.3-0.4-0.6-0.7-0.8-1.1
								c-0.3-0.4-0.6-0.8-0.8-1.2c-0.1-0.2-0.3-0.4-0.4-0.6c-0.4-0.6-0.8-1.3-1.1-1.9c0,0-0.1-0.1-0.1-0.2l-0.6-1.1l-9.4-18
								l-32.7-62.8C1029.5,720.4,1036.9,696.7,1056.1,686.7z"/>
						</g>
					</g>
					<path class="st40" d="M1046.1,838.1c-5.8,3-12,4.5-18.1,4.5c-14.2,0-27.8-7.7-34.8-21.1l-51.7-99.1l36.2-61.7
						c6-10.2,6.8-22.1,3.3-32.5l81.9,157C1072.8,804.4,1065.4,828.1,1046.1,838.1z"/>
					<path class="st40" d="M819.4,658.9l32.8,62.9l-58.6,101.4c-7.3,12.5-20.4,19.4-33.9,19.4c-6.7,0-13.6-1.7-19.8-5.4
						c-18.7-10.9-25-35-14-53.7l94.4-162.7c0-0.1,0.1-0.1,0.1-0.2C813.8,632,812.9,646.4,819.4,658.9z"/>
					<g>
						<g>
							<path class="st40" d="M915.1,757.5c-4.4,2.3-8.9,3.6-13.5,4.2c-0.8,0.1-1.5,0.1-2.3,0.2c-0.7,0-1.5,0.1-2.2,0.1
								c-0.2,0-0.3,0-0.5,0c-0.8,0-1.5,0-2.3-0.1c-0.8-0.1-1.6-0.1-2.3-0.2c-1.7-0.2-3.4-0.5-5-1c-0.9-0.3-1.9-0.6-2.8-0.9
								c-9.2-3.1-17.2-9.6-22.1-18.9l-9.9-19l-32.8-62.9c-6.5-12.5-5.6-26.9,1.1-38.2c0.5-0.8,0.9-1.5,1.4-2.3
								c1-1.4,2.1-2.8,3.3-4.1c0.6-0.7,1.2-1.3,1.9-1.9c0.6-0.6,1.3-1.2,2-1.7c0.1-0.1,0.2-0.2,0.3-0.2c0.5-0.5,1-0.9,1.6-1.2
								c0.4-0.3,0.7-0.6,1.1-0.8c0.4-0.3,0.8-0.6,1.2-0.8c0.2-0.1,0.4-0.2,0.6-0.4c0.6-0.4,1.3-0.8,1.9-1.1c0,0,0.1-0.1,0.2-0.1
								c0.1,0,0.1,0,0.2-0.1c0.7-0.4,1.4-0.7,2-1c0.6-0.3,1.1-0.5,1.7-0.7c0.4-0.2,0.9-0.4,1.4-0.5c0.3-0.1,0.6-0.2,0.9-0.3
								c0.4-0.1,0.8-0.2,1.1-0.3c0.4-0.2,0.9-0.3,1.3-0.4c3.1-0.8,6.4-1.2,9.5-1.2c1.7,0,3.4,0.1,5.1,0.3c0,0,0.1,0,0.2,0
								c0.9,0.1,1.7,0.3,2.6,0.5c2.5,0.5,4.9,1.2,7.2,2.2c0.4,0.2,0.7,0.3,1,0.5c0.6,0.2,1.1,0.5,1.7,0.8c0.8,0.4,1.5,0.8,2.3,1.3
								c0.8,0.5,1.5,0.9,2.3,1.4c1.4,1,2.8,2.1,4.1,3.3c0.7,0.6,1.3,1.2,1.9,1.9c0.6,0.6,1.2,1.3,1.7,2c0.1,0.1,0.2,0.2,0.3,0.3
								c0.4,0.5,0.8,1,1.2,1.6c0.3,0.4,0.6,0.7,0.8,1.1c0.3,0.4,0.6,0.8,0.8,1.2c0.1,0.2,0.3,0.4,0.4,0.6c0.4,0.6,0.8,1.3,1.1,1.9
								c0,0,0.1,0.1,0.1,0.2l0.6,1.1l9.4,18l32.7,62.8C941.8,723.8,934.4,747.5,915.1,757.5z"/>
						</g>
					</g>
					<path class="st40" d="M977.6,660.6l-36.2,61.7l-33-63.4c-5.5-10.6-5.7-22.6-1.6-32.8c0,0,0,0,0,0l3-5.2
						c6.9-11.7,18.8-18.5,31.4-19.3c0.7,0,1.5-0.1,2.2-0.1c14.1,0.1,27.6,7.8,34.6,21.1l2.8,5.5l0,0
						C984.5,638.5,983.6,650.4,977.6,660.6z"/>
				</g>
				<g>
					<g>
						<g>
							<path class="st40" d="M698.8,686.7c4.4-2.3,8.9-3.6,13.5-4.2c0.8-0.1,1.5-0.1,2.3-0.2c0.7,0,1.5-0.1,2.2-0.1
								c0.2,0,0.3,0,0.5,0c0.8,0,1.5,0,2.3,0.1c0.8,0.1,1.6,0.1,2.3,0.2c1.7,0.2,3.4,0.5,5,1c0.9,0.3,1.9,0.6,2.8,0.9
								c9.2,3.1,17.2,9.6,22.1,18.9l9.9,19l32.8,62.9c6.5,12.5,5.6,26.9-1.1,38.2c-0.5,0.8-0.9,1.5-1.4,2.3c-1,1.4-2.1,2.8-3.3,4.1
								c-0.6,0.7-1.2,1.3-1.9,1.9c-0.6,0.6-1.3,1.2-2,1.7c-0.1,0.1-0.2,0.2-0.3,0.2c-0.5,0.5-1,0.9-1.6,1.2
								c-0.4,0.3-0.7,0.6-1.1,0.8c-0.4,0.3-0.8,0.6-1.2,0.8c-0.2,0.1-0.4,0.2-0.6,0.4c-0.6,0.4-1.3,0.8-1.9,1.1c0,0-0.1,0.1-0.2,0.1
								c-0.1,0-0.1,0-0.2,0.1c-0.7,0.4-1.4,0.7-2,1c-0.6,0.3-1.1,0.5-1.7,0.7c-0.4,0.2-0.9,0.4-1.4,0.5c-0.3,0.1-0.6,0.2-0.9,0.3
								c-0.4,0.1-0.8,0.2-1.1,0.3c-0.4,0.2-0.9,0.3-1.3,0.4c-3.1,0.8-6.4,1.2-9.5,1.2c-1.7,0-3.4-0.1-5.1-0.3c0,0-0.1,0-0.2,0
								c-0.9-0.1-1.7-0.3-2.6-0.5c-2.5-0.5-4.9-1.2-7.2-2.2c-0.4-0.2-0.7-0.3-1-0.5c-0.6-0.2-1.1-0.5-1.7-0.8
								c-0.8-0.4-1.5-0.8-2.3-1.3c-0.8-0.5-1.5-0.9-2.3-1.4c-1.4-1-2.8-2.1-4.1-3.3c-0.7-0.6-1.3-1.2-1.9-1.9
								c-0.6-0.6-1.2-1.3-1.7-2c-0.1-0.1-0.2-0.2-0.3-0.3c-0.4-0.5-0.8-1-1.2-1.6c-0.3-0.4-0.6-0.7-0.8-1.1
								c-0.3-0.4-0.6-0.8-0.8-1.2c-0.1-0.2-0.3-0.4-0.4-0.6c-0.4-0.6-0.8-1.3-1.1-1.9c0,0-0.1-0.1-0.1-0.2l-0.6-1.1l-9.4-18
								l-32.7-62.8C672.1,720.4,679.6,696.7,698.8,686.7z"/>
						</g>
					</g>
					<path class="st40" d="M688.8,838.1c-5.8,3-12,4.5-18.1,4.5c-14.2,0-27.8-7.7-34.8-21.1l-51.7-99.1l36.2-61.7
						c6-10.2,6.8-22.1,3.3-32.5l81.9,157C715.5,804.4,708,828.1,688.8,838.1z"/>
					<path class="st40" d="M462.1,658.9l32.8,62.9l-58.6,101.4c-7.3,12.5-20.4,19.4-33.9,19.4c-6.7,0-13.6-1.7-19.8-5.4
						c-18.7-10.9-25-35-14-53.7L463,620.9c0-0.1,0.1-0.1,0.1-0.2C456.5,632,455.6,646.4,462.1,658.9z"/>
					<g>
						<g>
							<path class="st40" d="M557.8,757.5c-4.4,2.3-8.9,3.6-13.5,4.2c-0.8,0.1-1.5,0.1-2.3,0.2c-0.7,0-1.5,0.1-2.2,0.1
								c-0.2,0-0.3,0-0.5,0c-0.8,0-1.5,0-2.3-0.1c-0.8-0.1-1.6-0.1-2.3-0.2c-1.7-0.2-3.4-0.5-5-1c-0.9-0.3-1.9-0.6-2.8-0.9
								c-9.2-3.1-17.2-9.6-22.1-18.9l-9.9-19l-32.8-62.9c-6.5-12.5-5.6-26.9,1.1-38.2c0.5-0.8,0.9-1.5,1.4-2.3
								c1-1.4,2.1-2.8,3.3-4.1c0.6-0.7,1.2-1.3,1.9-1.9c0.6-0.6,1.3-1.2,2-1.7c0.1-0.1,0.2-0.2,0.3-0.2c0.5-0.5,1-0.9,1.6-1.2
								c0.4-0.3,0.7-0.6,1.1-0.8c0.4-0.3,0.8-0.6,1.2-0.8c0.2-0.1,0.4-0.2,0.6-0.4c0.6-0.4,1.3-0.8,1.9-1.1c0,0,0.1-0.1,0.2-0.1
								c0.1,0,0.1,0,0.2-0.1c0.7-0.4,1.4-0.7,2-1c0.6-0.3,1.1-0.5,1.7-0.7c0.4-0.2,0.9-0.4,1.4-0.5c0.3-0.1,0.6-0.2,0.9-0.3
								c0.4-0.1,0.8-0.2,1.1-0.3c0.4-0.2,0.9-0.3,1.3-0.4c3.1-0.8,6.4-1.2,9.5-1.2c1.7,0,3.4,0.1,5.1,0.3c0,0,0.1,0,0.2,0
								c0.9,0.1,1.7,0.3,2.6,0.5c2.5,0.5,4.9,1.2,7.2,2.2c0.4,0.2,0.7,0.3,1,0.5c0.6,0.2,1.1,0.5,1.7,0.8c0.8,0.4,1.5,0.8,2.3,1.3
								c0.8,0.5,1.5,0.9,2.3,1.4c1.4,1,2.8,2.1,4.1,3.3c0.7,0.6,1.3,1.2,1.9,1.9c0.6,0.6,1.2,1.3,1.7,2c0.1,0.1,0.2,0.2,0.3,0.3
								c0.4,0.5,0.8,1,1.2,1.6c0.3,0.4,0.6,0.7,0.8,1.1c0.3,0.4,0.6,0.8,0.8,1.2c0.1,0.2,0.3,0.4,0.4,0.6c0.4,0.6,0.8,1.3,1.1,1.9
								c0,0,0.1,0.1,0.1,0.2l0.6,1.1l9.4,18l32.7,62.8C584.5,723.8,577,747.5,557.8,757.5z"/>
						</g>
					</g>
					<path class="st40" d="M620.3,660.6l-36.2,61.7l-33-63.4c-5.5-10.6-5.7-22.6-1.6-32.8c0,0,0,0,0,0l3-5.2
						c6.9-11.7,18.8-18.5,31.4-19.3c0.7,0,1.5-0.1,2.2-0.1c14.1,0.1,27.6,7.8,34.6,21.1l2.8,5.5l0,0
						C627.1,638.5,626.3,650.4,620.3,660.6z"/>
				</g>
				<g>
					<g>
						<g>
							<path class="st40" d="M341.3,686.7c4.4-2.3,8.9-3.6,13.5-4.2c0.8-0.1,1.5-0.1,2.3-0.2c0.7,0,1.5-0.1,2.2-0.1
								c0.2,0,0.3,0,0.5,0c0.8,0,1.5,0,2.3,0.1c0.8,0.1,1.6,0.1,2.3,0.2c1.7,0.2,3.4,0.5,5,1c0.9,0.3,1.9,0.6,2.8,0.9
								c9.2,3.1,17.2,9.6,22.1,18.9l9.9,19l32.8,62.9c6.5,12.5,5.6,26.9-1.1,38.2c-0.5,0.8-0.9,1.5-1.4,2.3c-1,1.4-2.1,2.8-3.3,4.1
								c-0.6,0.7-1.2,1.3-1.9,1.9c-0.6,0.6-1.3,1.2-2,1.7c-0.1,0.1-0.2,0.2-0.3,0.2c-0.5,0.5-1,0.9-1.6,1.2
								c-0.4,0.3-0.7,0.6-1.1,0.8c-0.4,0.3-0.8,0.6-1.2,0.8c-0.2,0.1-0.4,0.2-0.6,0.4c-0.6,0.4-1.3,0.8-1.9,1.1c0,0-0.1,0.1-0.2,0.1
								c-0.1,0-0.1,0-0.2,0.1c-0.7,0.4-1.4,0.7-2,1c-0.6,0.3-1.1,0.5-1.7,0.7c-0.4,0.2-0.9,0.4-1.4,0.5c-0.3,0.1-0.6,0.2-0.9,0.3
								c-0.4,0.1-0.8,0.2-1.1,0.3c-0.4,0.2-0.9,0.3-1.3,0.4c-3.1,0.8-6.4,1.2-9.5,1.2c-1.7,0-3.4-0.1-5.1-0.3c0,0-0.1,0-0.2,0
								c-0.9-0.1-1.7-0.3-2.6-0.5c-2.5-0.5-4.9-1.2-7.2-2.2c-0.4-0.2-0.7-0.3-1-0.5c-0.6-0.2-1.1-0.5-1.7-0.8
								c-0.8-0.4-1.5-0.8-2.3-1.3c-0.8-0.5-1.5-0.9-2.3-1.4c-1.4-1-2.8-2.1-4.1-3.3c-0.7-0.6-1.3-1.2-1.9-1.9
								c-0.6-0.6-1.2-1.3-1.7-2c-0.1-0.1-0.2-0.2-0.3-0.3c-0.4-0.5-0.8-1-1.2-1.6c-0.3-0.4-0.6-0.7-0.8-1.1
								c-0.3-0.4-0.6-0.8-0.8-1.2c-0.1-0.2-0.3-0.4-0.4-0.6c-0.4-0.6-0.8-1.3-1.1-1.9c0,0-0.1-0.1-0.1-0.2l-0.6-1.1l-9.4-18
								l-32.7-62.8C314.6,720.4,322.1,696.7,341.3,686.7z"/>
						</g>
					</g>
					<path class="st40" d="M331.3,838.1c-5.8,3-12,4.5-18.1,4.5c-14.2,0-27.8-7.7-34.8-21.1l-51.7-99.1l36.2-61.7
						c6-10.2,6.8-22.1,3.3-32.5l81.9,157C357.9,804.4,350.5,828.1,331.3,838.1z"/>
					<path class="st40" d="M104.6,658.9l32.8,62.9L78.8,823.3c-7.3,12.5-20.4,19.4-33.9,19.4c-6.7,0-13.6-1.7-19.8-5.4
						c-18.7-10.9-25-35-14-53.7l94.4-162.7c0-0.1,0.1-0.1,0.1-0.2C98.9,632,98,646.4,104.6,658.9z"/>
					<g>
						<g>
							<path class="st40" d="M200.3,757.5c-4.4,2.3-8.9,3.6-13.5,4.2c-0.8,0.1-1.5,0.1-2.3,0.2c-0.7,0-1.5,0.1-2.2,0.1
								c-0.2,0-0.3,0-0.5,0c-0.8,0-1.5,0-2.3-0.1c-0.8-0.1-1.6-0.1-2.3-0.2c-1.7-0.2-3.4-0.5-5-1c-0.9-0.3-1.9-0.6-2.8-0.9
								c-9.2-3.1-17.2-9.6-22.1-18.9l-9.9-19l-32.8-62.9c-6.5-12.5-5.6-26.9,1.1-38.2c0.5-0.8,0.9-1.5,1.4-2.3
								c1-1.4,2.1-2.8,3.3-4.1c0.6-0.7,1.2-1.3,1.9-1.9c0.6-0.6,1.3-1.2,2-1.7c0.1-0.1,0.2-0.2,0.3-0.2c0.5-0.5,1-0.9,1.6-1.2
								c0.4-0.3,0.7-0.6,1.1-0.8c0.4-0.3,0.8-0.6,1.2-0.8c0.2-0.1,0.4-0.2,0.6-0.4c0.6-0.4,1.3-0.8,1.9-1.1c0,0,0.1-0.1,0.2-0.1
								c0.1,0,0.1,0,0.2-0.1c0.7-0.4,1.4-0.7,2-1c0.6-0.3,1.1-0.5,1.7-0.7c0.4-0.2,0.9-0.4,1.4-0.5c0.3-0.1,0.6-0.2,0.9-0.3
								c0.4-0.1,0.8-0.2,1.1-0.3c0.4-0.2,0.9-0.3,1.3-0.4c3.1-0.8,6.4-1.2,9.5-1.2c1.7,0,3.4,0.1,5.1,0.3c0,0,0.1,0,0.2,0
								c0.9,0.1,1.7,0.3,2.6,0.5c2.5,0.5,4.9,1.2,7.2,2.2c0.4,0.2,0.7,0.3,1,0.5c0.6,0.2,1.1,0.5,1.7,0.8c0.8,0.4,1.5,0.8,2.3,1.3
								c0.8,0.5,1.5,0.9,2.3,1.4c1.4,1,2.8,2.1,4.1,3.3c0.7,0.6,1.3,1.2,1.9,1.9c0.6,0.6,1.2,1.3,1.7,2c0.1,0.1,0.2,0.2,0.3,0.3
								c0.4,0.5,0.8,1,1.2,1.6c0.3,0.4,0.6,0.7,0.8,1.1c0.3,0.4,0.6,0.8,0.8,1.2c0.1,0.2,0.3,0.4,0.4,0.6c0.4,0.6,0.8,1.3,1.1,1.9
								c0,0,0.1,0.1,0.1,0.2l0.6,1.1l9.4,18l32.7,62.8C227,723.8,219.5,747.5,200.3,757.5z"/>
						</g>
					</g>
					<path class="st40" d="M262.8,660.6l-36.2,61.7l-33-63.4c-5.5-10.6-5.7-22.6-1.6-32.8c0,0,0,0,0,0l3-5.2
						c6.9-11.7,18.8-18.5,31.4-19.3c0.7,0,1.5-0.1,2.2-0.1c14.1,0.1,27.6,7.8,34.6,21.1l2.8,5.5l0,0
						C269.6,638.5,268.8,650.4,262.8,660.6z"/>
				</g>
				<g>
					<g>
						<g>
							<path class="st40" d="M-16,686.7c4.4-2.3,8.9-3.6,13.5-4.2c0.8-0.1,1.5-0.1,2.3-0.2c0.7,0,1.5-0.1,2.2-0.1c0.2,0,0.3,0,0.5,0
								c0.8,0,1.5,0,2.3,0.1c0.8,0.1,1.6,0.1,2.3,0.2c1.7,0.2,3.4,0.5,5,1c0.9,0.3,1.9,0.6,2.8,0.9c9.2,3.1,17.2,9.6,22.1,18.9
								l9.9,19l32.8,62.9c6.5,12.5,5.6,26.9-1.1,38.2c-0.5,0.8-0.9,1.5-1.4,2.3c-1,1.4-2.1,2.8-3.3,4.1c-0.6,0.7-1.2,1.3-1.9,1.9
								c-0.6,0.6-1.3,1.2-2,1.7c-0.1,0.1-0.2,0.2-0.3,0.2c-0.5,0.5-1,0.9-1.6,1.2c-0.4,0.3-0.7,0.6-1.1,0.8
								c-0.4,0.3-0.8,0.6-1.2,0.8c-0.2,0.1-0.4,0.2-0.6,0.4c-0.6,0.4-1.3,0.8-1.9,1.1c0,0-0.1,0.1-0.2,0.1c-0.1,0-0.1,0-0.2,0.1
								c-0.7,0.4-1.4,0.7-2,1c-0.6,0.3-1.1,0.5-1.7,0.7c-0.4,0.2-0.9,0.4-1.4,0.5c-0.3,0.1-0.6,0.2-0.9,0.3
								c-0.4,0.1-0.8,0.2-1.1,0.3c-0.4,0.2-0.9,0.3-1.3,0.4c-3.1,0.8-6.4,1.2-9.5,1.2c-1.7,0-3.4-0.1-5.1-0.3c0,0-0.1,0-0.2,0
								c-0.9-0.1-1.7-0.3-2.6-0.5c-2.5-0.5-4.9-1.2-7.2-2.2c-0.4-0.2-0.7-0.3-1-0.5c-0.6-0.2-1.1-0.5-1.7-0.8
								c-0.8-0.4-1.5-0.8-2.3-1.3c-0.8-0.5-1.5-0.9-2.3-1.4c-1.4-1-2.8-2.1-4.1-3.3c-0.7-0.6-1.3-1.2-1.9-1.9
								c-0.6-0.6-1.2-1.3-1.7-2c-0.1-0.1-0.2-0.2-0.3-0.3c-0.4-0.5-0.8-1-1.2-1.6c-0.3-0.4-0.6-0.7-0.8-1.1
								c-0.3-0.4-0.6-0.8-0.8-1.2c-0.1-0.2-0.3-0.4-0.4-0.6c-0.4-0.6-0.8-1.3-1.1-1.9c0,0-0.1-0.1-0.1-0.2l-0.6-1.1l-9.4-18
								l-32.7-62.8C-42.7,720.4-35.3,696.7-16,686.7z"/>
						</g>
					</g>
				</g>
			</g>
		</g>
	</g>
</g>
<g id="Слой_2">
</g>
<g id="Слой_3">
</g>
<g id="Слой_4">
</g>
<g id="Слой_5">
</g>
</svg>
